<?xml version="1.0" encoding="UTF-8"?>
<svg version="1.1" xmlns="http://www.w3.org/2000/svg" width="500" height="500">
<path d="M0 0 C4.42666188 2.21333094 6.53644368 4.85267865 9.4375 8.6875 C9.90220703 9.28755859 10.36691406 9.88761719 10.84570312 10.50585938 C12.24700592 12.32540318 13.62726063 14.15882851 15 16 C15.48227051 16.64275879 15.96454102 17.28551758 16.46142578 17.94775391 C20 22.75767216 20 22.75767216 20 25 C20.66 25 21.32 25 22 25 C23.2890625 26.4609375 23.2890625 26.4609375 24.625 28.375 C25.07101563 29.00148437 25.51703125 29.62796875 25.9765625 30.2734375 C27 32 27 32 27 34 C27.66 34 28.32 34 29 34 C33 39.41176471 33 39.41176471 33 42 C33.66 42 34.32 42 35 42 C36.60525882 44.05133263 38.09306526 46.10411906 39.5625 48.25 C40.47282898 49.55157186 41.38430643 50.85234115 42.296875 52.15234375 C42.75384766 52.8057373 43.21082031 53.45913086 43.68164062 54.13232422 C48.04025718 60.30703101 52.68161087 66.28210889 57.27734375 72.28125 C57.85121826 73.03043701 58.42509277 73.77962402 59.01635742 74.55151367 C60.14146725 76.01886223 61.26785724 77.48523044 62.39575195 78.95043945 C63.93911465 80.9605822 65.47180733 82.97830753 67 85 C67.49564453 85.64759277 67.99128906 86.29518555 68.50195312 86.96240234 C72 91.6522943 72 91.6522943 72 95 C71.34 95 70.68 95 70 95 C70 95.66 70 96.32 70 97 C68.5459375 97.680625 68.5459375 97.680625 67.0625 98.375 C62.40774446 100.97256215 59.37417647 104.88998231 56.015625 108.953125 C55.35046875 109.62859375 54.6853125 110.3040625 54 111 C53.01 111 52.02 111 51 111 C49.19886926 108.78413521 47.59129678 106.60886347 46 104.25 C45.12525791 102.98419673 44.25026424 101.71856727 43.375 100.453125 C42.96636719 99.85306641 42.55773437 99.25300781 42.13671875 98.63476562 C41.19667311 97.28284431 40.19903414 95.97117316 39.1875 94.671875 C38 93 38 93 38 91 C37.34 91 36.68 91 36 91 C34.62101957 89.30189246 33.32040522 87.53964541 32.0625 85.75 C31.37285156 84.77546875 30.68320313 83.8009375 29.97265625 82.796875 C29.32167969 81.87390625 28.67070312 80.9509375 28 80 C27.42121094 79.26265625 26.84242188 78.5253125 26.24609375 77.765625 C25 76 25 76 25 74 C24.34 74 23.68 74 23 74 C19 69.52941176 19 69.52941176 19 67 C18.01 67 17.02 67 16 67 C14.91262602 76.69128664 13.84774435 86.38461292 12.81640625 96.08203125 C12.50374655 99.00726934 12.19076188 101.93247249 11.87768555 104.85766602 C11.66814843 106.82205621 11.45980826 108.78657447 11.25268555 110.7512207 C10.05720984 122.07663109 8.71212436 133.35359066 7.04971313 144.62036133 C5.7669837 153.39299458 4.91095417 162.18566767 4.09570312 171.01367188 C3.49522985 177.19619844 2.72839442 183.02850854 1 189 C0.67 189 0.34 189 0 189 C0 126.63 0 64.26 0 0 Z " fill="#7C5E3A" transform="translate(182,152)"/>
<path d="M0 0 C-1.35464694 3.15619207 -2.71094729 4.83237955 -5.484375 6.83984375 C-6.17273438 7.34580078 -6.86109375 7.85175781 -7.5703125 8.37304688 C-8.28960937 8.88931641 -9.00890625 9.40558594 -9.75 9.9375 C-11.16258938 10.96589612 -12.57406442 11.99582477 -13.984375 13.02734375 C-14.66435547 13.52218262 -15.34433594 14.01702148 -16.04492188 14.52685547 C-17.88948636 15.91672836 -19.64211924 17.37100593 -21.390625 18.87890625 C-24 21 -24 21 -26 21 C-26 21.66 -26 22.32 -26 23 C-26.66 23 -27.32 23 -28 23 C-28.495 24.485 -28.495 24.485 -29 26 C-29.66 26 -30.32 26 -31 26 C-31 26.66 -31 27.32 -31 28 C-31.66 28 -32.32 28 -33 28 C-33.27585937 28.72832031 -33.55171875 29.45664063 -33.8359375 30.20703125 C-34.93392477 32.8414638 -36.22241063 35.2063112 -37.625 37.6875 C-40.2439786 42.96443009 -41.09706345 47.18042123 -40 53 C-38.59259231 57.13426008 -36.84548871 61.04618024 -35 65 C-34.32237022 66.66223949 -33.65193386 68.32751548 -33 70 C-32.34 70 -31.68 70 -31 70 C-29.66796875 71.57421875 -29.66796875 71.57421875 -28.1875 73.6875 C-26.30816858 76.29639988 -24.45813656 78.66151147 -22.125 80.875 C-21.42375 81.57625 -20.7225 82.2775 -20 83 C-20 83.66 -20 84.32 -20 85 C-19.34 85 -18.68 85 -18 85 C-18 85.66 -18 86.32 -18 87 C-17.34 87 -16.68 87 -16 87 C-14.44921875 88.57421875 -14.44921875 88.57421875 -12.6875 90.6875 C-9.93963771 93.96640983 -7.04386455 96.99319925 -4 100 C-3.22140625 100.80179687 -2.4428125 101.60359375 -1.640625 102.4296875 C3.10232102 107.28113229 7.87213755 111.65883948 13.3828125 115.625 C13.91648437 116.07875 14.45015625 116.5325 15 117 C15 117.66 15 118.32 15 119 C15.66 119 16.32 119 17 119 C17 119.66 17 120.32 17 121 C17.71800781 121.25136719 18.43601562 121.50273437 19.17578125 121.76171875 C22.24710679 123.10834419 24.53657491 124.76459184 27.1875 126.8125 C32.20391458 130.55436359 37.30478365 133.43035792 43 136 C43 136.66 43 137.32 43 138 C32.99107866 135.70013232 23.49025323 132.99938495 14 129 C13.35498535 128.7328418 12.7099707 128.46568359 12.04541016 128.19042969 C3.61661208 124.68926742 -4.28408011 120.91270496 -12 116 C-14.32125442 114.64418594 -16.65969138 113.32278313 -19 112 C-19 111.34 -19 110.68 -19 110 C-19.84304688 109.84337891 -19.84304688 109.84337891 -20.703125 109.68359375 C-23.42380471 108.87386765 -25.39257807 107.63796662 -27.75 106.0625 C-28.54921875 105.53785156 -29.3484375 105.01320313 -30.171875 104.47265625 C-30.77515625 103.98667969 -31.3784375 103.50070312 -32 103 C-32 102.34 -32 101.68 -32 101 C-32.70125 100.773125 -33.4025 100.54625 -34.125 100.3125 C-37.74128535 98.66158712 -40.08769976 96.7091165 -43 94 C-43 93.34 -43 92.68 -43 92 C-43.56976563 91.75507813 -44.13953125 91.51015625 -44.7265625 91.2578125 C-53.87626977 86.19560332 -61.76441902 75.43185147 -65.30078125 65.703125 C-67.45219712 57.38591953 -66.52800536 50.61802767 -62.38671875 43.15625 C-61.00539966 41.0083961 -59.65235979 38.94916437 -58 37 C-57.34 37 -56.68 37 -56 37 C-55.773125 36.38125 -55.54625 35.7625 -55.3125 35.125 C-53.62070165 32.38589791 -52.00755839 31.94975528 -49 31 C-49 30.34 -49 29.68 -49 29 C-48.24460937 28.57332031 -47.48921875 28.14664063 -46.7109375 27.70703125 C-24.59836134 15.53428334 -24.59836134 15.53428334 -3.828125 1.29296875 C-2 0 -2 0 0 0 Z " fill="#947245" transform="translate(306,224)"/>
<path d="M0 0 C0.66 0 1.32 0 2 0 C2.17826922 6.26177137 2.30039607 12.52288301 2.38452148 18.78662109 C2.41960846 20.91479952 2.46729229 23.04281061 2.52807617 25.17041016 C2.61351498 28.23902752 2.65280577 31.30540553 2.68359375 34.375 C2.71972275 35.31802979 2.75585175 36.26105957 2.79307556 37.23266602 C2.79682021 43.60926136 1.3293562 46.78097934 -3.1612854 51.31492615 C-3.76806122 51.87100052 -4.37483704 52.42707489 -5 53 C-5.60092972 53.56431229 -6.20185944 54.12862457 -6.82099915 54.71003723 C-8.44810844 56.20953135 -10.11661847 57.64139967 -11.8125 59.0625 C-12.422146 59.57780273 -13.03179199 60.09310547 -13.65991211 60.62402344 C-18.57299756 64.7323738 -23.61506968 68.52638754 -29 72 C-29.9590625 72.62132812 -30.918125 73.24265625 -31.90625 73.8828125 C-38.19875356 77.85456599 -44.62416871 81.49835571 -51.1875 85 C-52.30233765 85.59723877 -52.30233765 85.59723877 -53.43969727 86.20654297 C-58.75219888 89 -58.75219888 89 -61 89 C-59.51999364 84.67259009 -57.20113806 81.26202242 -54.5 77.625 C-50.20242278 71.75153867 -46.13586834 65.76145648 -42.22460938 59.62353516 C-41.20001108 58.04848778 -40.10617607 56.51886483 -39 55 C-38.34 55 -37.68 55 -37 55 C-36.66935547 53.99839844 -36.66935547 53.99839844 -36.33203125 52.9765625 C-34.58181288 49.06551734 -32.19917641 45.83171119 -29.6875 42.375 C-28.60288842 40.86159235 -27.51960433 39.34723263 -26.4375 37.83203125 C-25.87417969 37.04393066 -25.31085938 36.25583008 -24.73046875 35.44384766 C-21.83246994 31.35116028 -19.0102812 27.20726523 -16.1875 23.0625 C-6.95679266 9.5282046 -6.95679266 9.5282046 -3 4 C-2.23042969 2.88431641 -2.23042969 2.88431641 -1.4453125 1.74609375 C-0.72988281 0.88177734 -0.72988281 0.88177734 0 0 Z " fill="#AC8A58" transform="translate(326,152)"/>
<path d="M0 0 C4.11429048 3.29143238 6.48329139 5.67514787 9.5 9.8125 C10.27214844 10.86824219 11.04429687 11.92398438 11.83984375 13.01171875 C12.90912109 14.49091797 12.90912109 14.49091797 14 16 C14.55816406 16.74894531 15.11632812 17.49789062 15.69140625 18.26953125 C19 22.74697293 19 22.74697293 19 25 C19.66 25 20.32 25 21 25 C22.2890625 26.4609375 22.2890625 26.4609375 23.625 28.375 C24.07101563 29.00148437 24.51703125 29.62796875 24.9765625 30.2734375 C26 32 26 32 26 34 C26.66 34 27.32 34 28 34 C32 39.41176471 32 39.41176471 32 42 C32.66 42 33.32 42 34 42 C35.74703334 44.26051949 37.38790421 46.52134015 39 48.875 C42.2294917 53.65503106 42.2294917 53.65503106 46 58 C46.50672983 59.44223106 46.95956502 60.90387141 47.375 62.375 C48.57931675 66.22263762 49.90239853 68.3296539 53 71 C53 71.66 53 72.32 53 73 C51.22604492 72.57533503 49.45589369 72.1347591 47.6875 71.6875 C46.70136719 71.44386719 45.71523437 71.20023437 44.69921875 70.94921875 C41.99344818 69.99769596 40.75141937 69.22962262 39 67 C39 66.67 39 66.34 39 66 C38.01 66 37.02 66 36 66 C36 65.01 36 64.02 36 63 C35.01 63 34.02 63 33 63 C33.33 62.01 33.66 61.02 34 60 C34.33 60.33 34.66 60.66 35 61 C34.34 59.68 33.68 58.36 33 57 C32.01 57 31.02 57 30 57 C28.515 56.505 28.515 56.505 27 56 C27 55.34 27 54.68 27 54 C26.34 53.67 25.68 53.34 25 53 C24.67 53.33 24.34 53.66 24 54 C22 53 22 53 20.5625 51.4375 C18.98589466 49.66147173 18.98589466 49.66147173 16 50 C15.01 50 14.02 50 13 50 C12.505 50.495 12.505 50.495 12 51 C9.5625 50.8125 9.5625 50.8125 7 50 C5.6875 47.9375 5.6875 47.9375 5 46 C5 47.32 5 48.64 5 50 C4.01 49.67 3.02 49.34 2 49 C1.67 63.52 1.34 78.04 1 93 C0.67 93 0.34 93 0 93 C0 62.31 0 31.62 0 0 Z " fill="#D7B985" transform="translate(183,152)"/>
<path d="M0 0 C1.32 0 2.64 0 4 0 C6 2 6 2 6 3 C8.31 3.33 10.62 3.66 13 4 C13.33 2.68 13.66 1.36 14 0 C15.65 0.66 17.3 1.32 19 2 C19 2.66 19 3.32 19 4 C19.66 3.34 20.32 2.68 21 2 C21 1.34 21 0.68 21 0 C23 0 23 0 24.5625 1.375 C26 3 26 3 27 5 C27.33 4.34 27.66 3.68 28 3 C28.66 3 29.32 3 30 3 C30 3.66 30 4.32 30 5 C30.66 5 31.32 5 32 5 C33.55078125 6.57421875 33.55078125 6.57421875 35.3125 8.6875 C38.06036229 11.96640983 40.95613545 14.99319925 44 18 C45.16789062 19.20269531 45.16789062 19.20269531 46.359375 20.4296875 C51.10232102 25.28113229 55.87213755 29.65883948 61.3828125 33.625 C61.91648437 34.07875 62.45015625 34.5325 63 35 C63 35.66 63 36.32 63 37 C63.66 37 64.32 37 65 37 C65 37.66 65 38.32 65 39 C65.71800781 39.25136719 66.43601562 39.50273437 67.17578125 39.76171875 C70.24710679 41.10834419 72.53657491 42.76459184 75.1875 44.8125 C80.20391458 48.55436359 85.30478365 51.43035792 91 54 C91 54.66 91 55.32 91 56 C80.99107866 53.70013232 71.49025323 50.99938495 62 47 C61.35498535 46.7328418 60.7099707 46.46568359 60.04541016 46.19042969 C51.61661208 42.68926742 43.71591989 38.91270496 36 34 C33.67874558 32.64418594 31.34030862 31.32278313 29 30 C29 29.34 29 28.68 29 28 C28.43796875 27.89558594 27.8759375 27.79117187 27.296875 27.68359375 C24.57619529 26.87386765 22.60742193 25.63796662 20.25 24.0625 C19.45078125 23.53785156 18.6515625 23.01320313 17.828125 22.47265625 C17.22484375 21.98667969 16.6215625 21.50070312 16 21 C16 20.34 16 19.68 16 19 C15.29875 18.773125 14.5975 18.54625 13.875 18.3125 C10.25871465 16.66158712 7.91230024 14.7091165 5 12 C5 11.34 5 10.68 5 10 C4.4225 9.773125 3.845 9.54625 3.25 9.3125 C0.4336339 7.66961977 -1.08077114 5.60466773 -3 3 C-2.34 3 -1.68 3 -1 3 C-0.67 2.01 -0.34 1.02 0 0 Z " fill="#7A5B35" transform="translate(258,306)"/>
<path d="M0 0 C0.33 0 0.66 0 1 0 C1.00586624 0.62196259 1.01173248 1.24392517 1.01777649 1.88473511 C1.08156397 8.34094159 1.16594469 14.79664278 1.26245117 21.25244141 C1.29576665 23.6638321 1.32377768 26.07530202 1.34643555 28.48681641 C1.37985972 31.94728458 1.43216953 35.40702227 1.48828125 38.8671875 C1.49467117 39.95055389 1.5010611 41.03392029 1.50764465 42.15011597 C1.52743881 43.1510025 1.54723297 44.15188904 1.56762695 45.18310547 C1.58428154 46.50881058 1.58428154 46.50881058 1.60127258 47.86129761 C1.73285263 48.5670694 1.86443268 49.27284119 2 50 C4.81509993 52.2773501 4.81509993 52.2773501 8 52 C8.66 52 9.32 52 10 52 C10 53.98 10 55.96 10 58 C10.66 58 11.32 58 12 58 C12.12375 58.928125 12.12375 58.928125 12.25 59.875 C12.79326091 62.16669871 12.79326091 62.16669871 14.9375 63.0625 C15.618125 63.371875 16.29875 63.68125 17 64 C17.66 64.99 18.32 65.98 19 67 C18.01 67 17.02 67 16 67 C14.91262602 76.69128664 13.84774435 86.38461292 12.81640625 96.08203125 C12.50374655 99.00726934 12.19076188 101.93247249 11.87768555 104.85766602 C11.66814843 106.82205621 11.45980826 108.78657447 11.25268555 110.7512207 C10.05720984 122.07663109 8.71212436 133.35359066 7.04971313 144.62036133 C5.7669837 153.39299458 4.91095417 162.18566767 4.09570312 171.01367188 C3.49522985 177.19619844 2.72839442 183.02850854 1 189 C0.67 189 0.34 189 0 189 C0 126.63 0 64.26 0 0 Z " fill="#937348" transform="translate(182,152)"/>
<path d="M0 0 C0.99 0.66 1.98 1.32 3 2 C3 2.66 3 3.32 3 4 C5.9254644 4.2236068 5.9254644 4.2236068 8 3 C8 3.66 8 4.32 8 5 C8.99 5 9.98 5 11 5 C11.33 4.34 11.66 3.68 12 3 C12.99 3 13.98 3 15 3 C15.12375 3.639375 15.2475 4.27875 15.375 4.9375 C15.58125 5.618125 15.7875 6.29875 16 7 C16.66 7.33 17.32 7.66 18 8 C18.33 7.67 18.66 7.34 19 7 C21 8 21 8 23 11 C24.96128755 11.8237956 24.96128755 11.8237956 27 12 C27.66 11.67 28.32 11.34 29 11 C29 11.66 29 12.32 29 13 C29.66 13.66 30.32 14.32 31 15 C31 15.66 31 16.32 31 17 C30.01 17.33 29.02 17.66 28 18 C28.7425 18.12375 29.485 18.2475 30.25 18.375 C32.80141485 18.95486701 34.7267573 19.73708739 37 21 C37 21.99 37 22.98 37 24 C37.62648437 24.20496094 38.25296875 24.40992188 38.8984375 24.62109375 C39.71570313 24.89050781 40.53296875 25.15992188 41.375 25.4375 C42.18710938 25.70433594 42.99921875 25.97117188 43.8359375 26.24609375 C46 27 46 27 48 28 C48 27.34 48 26.68 48 26 C47.01 25.67 46.02 25.34 45 25 C43.796875 23.22265625 43.796875 23.22265625 42.75 21.0625 C42.21632813 19.99708984 42.21632813 19.99708984 41.671875 18.91015625 C41.45015625 18.27980469 41.2284375 17.64945313 41 17 C41.33 16.34 41.66 15.68 42 15 C45.9375 20.25 45.9375 20.25 47.15039062 21.87304688 C49.26985246 24.70671114 51.40200281 27.52859742 53.56640625 30.328125 C54.36949219 31.37484375 55.17257813 32.4215625 56 33.5 C57.11375 34.93859375 57.11375 34.93859375 58.25 36.40625 C59.8203306 38.73370428 60.58660364 40.26124909 61 43 C58.03 43.495 58.03 43.495 55 44 C54.01 42.68 53.02 41.36 52 40 C51.01 40.66 50.02 41.32 49 42 C46.66800612 42.07905064 44.33167378 42.08798769 42 42 C41.505 39.03 41.505 39.03 41 36 C41.66 35.67 42.32 35.34 43 35 C43 34.34 43 33.68 43 33 C42.401875 32.855625 41.80375 32.71125 41.1875 32.5625 C39.43849596 32.1127561 37.71322977 31.57107659 36 31 C35.505 29.515 35.505 29.515 35 28 C32.13275314 28.57344937 31.1385485 28.8614515 29 31 C28.979375 30.401875 28.95875 29.80375 28.9375 29.1875 C28.09543384 26.56685398 28.09543384 26.56685398 24.4375 25.25 C23.303125 24.8375 22.16875 24.425 21 24 C20.67 24.99 20.34 25.98 20 27 C18 24 18 24 18 22 C17.1028125 22.3403125 17.1028125 22.3403125 16.1875 22.6875 C15.465625 22.790625 14.74375 22.89375 14 23 C12.97591432 22.0246803 11.98165594 21.01801357 11 20 C8.71054235 18.85527117 6.38362951 17.94445698 4 17 C3.67 14.03 3.34 11.06 3 8 C2.01 7.67 1.02 7.34 0 7 C-0.33 7.66 -0.66 8.32 -1 9 C-1.99 7.68 -2.98 6.36 -4 5 C-3.67 4.34 -3.34 3.68 -3 3 C-2.34 3 -1.68 3 -1 3 C-0.67 2.01 -0.34 1.02 0 0 Z " fill="#AC8A5B" transform="translate(188,197)"/>
<path d="M0 0 C-1.35464694 3.15619207 -2.71094729 4.83237955 -5.484375 6.83984375 C-6.17273438 7.34580078 -6.86109375 7.85175781 -7.5703125 8.37304688 C-8.28960937 8.88931641 -9.00890625 9.40558594 -9.75 9.9375 C-11.16258938 10.96589612 -12.57406442 11.99582477 -13.984375 13.02734375 C-14.66435547 13.52218262 -15.34433594 14.01702148 -16.04492188 14.52685547 C-17.88948636 15.91672836 -19.64211924 17.37100593 -21.390625 18.87890625 C-24 21 -24 21 -26 21 C-26 21.66 -26 22.32 -26 23 C-26.66 23 -27.32 23 -28 23 C-28.495 24.485 -28.495 24.485 -29 26 C-29.66 26 -30.32 26 -31 26 C-31 26.66 -31 27.32 -31 28 C-31.66 28 -32.32 28 -33 28 C-33.2475 28.66 -33.495 29.32 -33.75 30 C-34.76386328 32.43327188 -35.77979852 34.85262984 -36.875 37.25 C-37.18179687 37.93578125 -37.48859375 38.6215625 -37.8046875 39.328125 C-39 41 -39 41 -41.1328125 41.734375 C-41.74898438 41.82203125 -42.36515625 41.9096875 -43 42 C-43.33 43.98 -43.66 45.96 -44 48 C-45.6396875 47.7215625 -45.6396875 47.7215625 -47.3125 47.4375 C-50.93624133 46.7421932 -50.93624133 46.7421932 -54 48 C-55.32 48 -56.64 48 -58 48 C-58 50.64 -58 53.28 -58 56 C-56.68 56.66 -55.36 57.32 -54 58 C-54.48941176 63.50588235 -54.48941176 63.50588235 -56.9375 65.875 C-59 67 -59 67 -61 67 C-61.495 64.525 -61.495 64.525 -62 62 C-62.99 62 -63.98 62 -65 62 C-65.43829182 54.01334898 -65.59352326 47.74932841 -61 41 C-60.46375 40.175 -59.9275 39.35 -59.375 38.5 C-58.92125 38.005 -58.4675 37.51 -58 37 C-57.34 37 -56.68 37 -56 37 C-55.773125 36.38125 -55.54625 35.7625 -55.3125 35.125 C-53.62070165 32.38589791 -52.00755839 31.94975528 -49 31 C-49 30.34 -49 29.68 -49 29 C-48.24460937 28.57332031 -47.48921875 28.14664063 -46.7109375 27.70703125 C-24.59836134 15.53428334 -24.59836134 15.53428334 -3.828125 1.29296875 C-2 0 -2 0 0 0 Z " fill="#C8B692" transform="translate(306,224)"/>
<path d="M0 0 C0.33 0 0.66 0 1 0 C1.0154612 1.88801079 1.0154612 1.88801079 1.03123474 3.81416321 C1.12887233 15.65977509 1.23159722 27.50533332 1.33933926 39.35085773 C1.39456967 45.44116197 1.44798993 51.53147101 1.49731445 57.62182617 C1.54495615 63.49625588 1.59729901 69.37062639 1.65294075 75.24498558 C1.67336516 77.48931599 1.6920781 79.73366263 1.70907402 81.97802162 C1.733116 85.11472075 1.76317103 88.25130769 1.79467773 91.38793945 C1.8004332 92.32157822 1.80618866 93.25521698 1.81211853 94.21714783 C1.82190735 95.07110138 1.83169617 95.92505493 1.84178162 96.80488586 C1.84823417 97.54692922 1.85468672 98.28897257 1.8613348 99.05350208 C1.93460154 101.21716569 1.93460154 101.21716569 3 104 C4.65 104 6.3 104 8 104 C8.33 102.68 8.66 101.36 9 100 C9.33 100.33 9.66 100.66 10 101 C10.33 99.02 10.66 97.04 11 95 C11.33 95 11.66 95 12 95 C11.63729997 105.83097322 10.7868325 116.44731611 9.22729492 127.17260742 C8.13730694 134.74498342 7.28735915 142.32809163 6.5 149.9375 C5.54863191 159.0088727 4.56399734 168.07350763 3.4375 177.125 C3.32277344 178.09687256 3.20804688 179.06874512 3.08984375 180.07006836 C2.9196875 181.40050171 2.9196875 181.40050171 2.74609375 182.7578125 C2.64997803 183.5327002 2.5538623 184.30758789 2.45483398 185.10595703 C2 187 2 187 0 189 C0 126.63 0 64.26 0 0 Z " fill="#453117" transform="translate(182,152)"/>
<path d="M0 0 C0.66 0 1.32 0 2 0 C2.99 1.98 3.98 3.96 5 6 C5.99 6 6.98 6 8 6 C9 8 9 8 10 11 C13.465 10.505 13.465 10.505 17 10 C17.33 8.68 17.66 7.36 18 6 C18.66 6 19.32 6 20 6 C20.33 6.99 20.66 7.98 21 9 C23.60242414 10.64820195 24.86248779 11 28 11 C28 12.65 28 14.3 28 16 C28.6290625 15.91878906 29.258125 15.83757812 29.90625 15.75390625 C34.01545748 15.45066654 36.88895395 15.29184125 40.4453125 17.55859375 C42.39894164 19.29865412 44.23623542 21.06872705 46 23 C46.66 22.67 47.32 22.34 48 22 C48 22.66 48 23.32 48 24 C48.66 24 49.32 24 50 24 C50 24.66 50 25.32 50 26 C50.71800781 26.25136719 51.43601562 26.50273437 52.17578125 26.76171875 C55.24710679 28.10834419 57.53657491 29.76459184 60.1875 31.8125 C65.20391458 35.55436359 70.30478365 38.43035792 76 41 C76 41.66 76 42.32 76 43 C65.99107866 40.70013232 56.49025323 37.99938495 47 34 C46.35498535 33.7328418 45.7099707 33.46568359 45.04541016 33.19042969 C36.61661208 29.68926742 28.71591989 25.91270496 21 21 C18.67874558 19.64418594 16.34030862 18.32278313 14 17 C14 16.34 14 15.68 14 15 C13.43796875 14.89558594 12.8759375 14.79117187 12.296875 14.68359375 C9.57619529 13.87386765 7.60742193 12.63796662 5.25 11.0625 C4.45078125 10.53785156 3.6515625 10.01320313 2.828125 9.47265625 C2.22484375 8.98667969 1.6215625 8.50070312 1 8 C1 7.34 1 6.68 1 6 C0.01 5.67 -0.98 5.34 -2 5 C-1.34 3.35 -0.68 1.7 0 0 Z " fill="#573F22" transform="translate(273,319)"/>
<path d="M0 0 C0.66 0 1.32 0 2 0 C2.17826922 6.26177137 2.30039607 12.52288301 2.38452148 18.78662109 C2.41960846 20.91479952 2.46729229 23.04281061 2.52807617 25.17041016 C2.61351498 28.23902752 2.65280577 31.30540553 2.68359375 34.375 C2.71972275 35.31802979 2.75585175 36.26105957 2.79307556 37.23266602 C2.79682021 43.60926136 1.3293562 46.78097934 -3.1612854 51.31492615 C-3.76806122 51.87100052 -4.37483704 52.42707489 -5 53 C-5.60089447 53.56428711 -6.20178894 54.12857422 -6.82089233 54.70996094 C-8.44802762 56.20945611 -10.11670759 57.64126674 -11.8125 59.0625 C-12.41707031 59.57417725 -13.02164062 60.08585449 -13.64453125 60.61303711 C-20.27776503 66.16503271 -27.06543792 71.45032749 -35 75 C-35.33 73.68 -35.66 72.36 -36 71 C-34.515 70.505 -34.515 70.505 -33 70 C-33.495 67.525 -33.495 67.525 -34 65 C-29.25 62 -29.25 62 -27 62 C-26.95875 61.401875 -26.9175 60.80375 -26.875 60.1875 C-25.54890668 56.87226671 -23.17467889 56.36057667 -20 55 C-19.01 54.505 -19.01 54.505 -18 54 C-17.67 53.01 -17.34 52.02 -17 51 C-14.94990951 46.60694894 -12.77587768 42.14656473 -9 39 C-7.515 38.505 -7.515 38.505 -6 38 C-6.66 37.34 -7.32 36.68 -8 36 C-7.625 33.875 -7.625 33.875 -7 32 C-6.01 32 -5.02 32 -4 32 C-3.896875 31.360625 -3.79375 30.72125 -3.6875 30.0625 C-3.460625 29.381875 -3.23375 28.70125 -3 28 C-2.01 27.67 -1.02 27.34 0 27 C0 18.09 0 9.18 0 0 Z " fill="#937245" transform="translate(326,152)"/>
<path d="M0 0 C0.495 1.485 0.495 1.485 1 3 C1.66 3.33 2.32 3.66 3 4 C2.34 7.3 1.68 10.6 1 14 C-0.65 14.33 -2.3 14.66 -4 15 C-5.69882448 17.49759982 -5.69882448 17.49759982 -7 20 C-7.66 20 -8.32 20 -9 20 C-9.66 21.98 -10.32 23.96 -11 26 C-11.33 26 -11.66 26 -12 26 C-12.28875 26.86625 -12.5775 27.7325 -12.875 28.625 C-13.24625 29.73875 -13.6175 30.8525 -14 32 C-14.33 33.0725 -14.66 34.145 -15 35.25 C-16 38 -16 38 -18 40 C-18 40.66 -18 41.32 -18 42 C-18.66 42 -19.32 42 -20 42 C-20 42.66 -20 43.32 -20 44 C-20.99 44 -21.98 44 -23 44 C-23.33 44.66 -23.66 45.32 -24 46 C-25.33333333 47.33333333 -26.66666667 48.66666667 -28 50 C-28.66 50.99 -29.32 51.98 -30 53 C-31.84046388 54.84046388 -34.56857771 55.22401416 -37 56 C-36.67 55.01 -36.34 54.02 -36 53 C-35.34 53 -34.68 53 -34 53 C-34 52.01 -34 51.02 -34 50 C-33.34 50 -32.68 50 -32 50 C-31.814375 48.1128125 -31.814375 48.1128125 -31.625 46.1875 C-31.30131941 42.89674737 -30.93395001 41.90092502 -29 39 C-28.34 39 -27.68 39 -27 39 C-26.78214844 38.33613281 -26.56429688 37.67226562 -26.33984375 36.98828125 C-24.5561787 33.01013617 -22.11639362 29.70623359 -19.5625 26.1875 C-18.48201446 24.68174854 -17.40261471 23.17521744 -16.32421875 21.66796875 C-15.77427246 20.9001709 -15.22432617 20.13237305 -14.65771484 19.34130859 C-11.52488345 14.91658796 -8.49511967 10.41955624 -5.47875977 5.91479492 C-2.21848318 1.10924159 -2.21848318 1.10924159 0 0 Z M-39 56 C-38.34 56 -37.68 56 -37 56 C-37.33 56.66 -37.66 57.32 -38 58 C-38.33 57.34 -38.66 56.68 -39 56 Z " fill="#C3A474" transform="translate(316,168)"/>
<path d="M0 0 C0.99 0 1.98 0 3 0 C2.98839844 0.79664063 2.97679687 1.59328125 2.96484375 2.4140625 C2.88806986 9.01702117 2.88806986 9.01702117 3.625 15.5625 C4 18 4 18 2 21 C2.99 21.99 3.98 22.98 5 24 C2.25 28.875 2.25 28.875 0 30 C-0.66 29.34 -1.32 28.68 -2 28 C-2.66 28.99 -3.32 29.98 -4 31 C-4.495 30.360625 -4.99 29.72125 -5.5 29.0625 C-8.98806387 26.18484731 -11.53461041 26.29769264 -16 26 C-14.92578125 24.27473958 -13.8515625 22.54947917 -12.77734375 20.82421875 C-11.68887926 18.82866925 -11.68887926 18.82866925 -13 16 C-13.66 15.67 -14.32 15.34 -15 15 C-15.4140625 12.93359375 -15.4140625 12.93359375 -15.625 10.4375 C-15.69976562 9.61121094 -15.77453125 8.78492188 -15.8515625 7.93359375 C-15.90054688 7.29550781 -15.94953125 6.65742188 -16 6 C-15.113125 6.020625 -14.22625 6.04125 -13.3125 6.0625 C-10.37830369 6.00713781 -7.84506304 5.6694266 -5 5 C-5 5.66 -5 6.32 -5 7 C-3.68 7 -2.36 7 -1 7 C-1.020625 6.030625 -1.04125 5.06125 -1.0625 4.0625 C-1 1 -1 1 0 0 Z " fill="#9D7C4E" transform="translate(263,265)"/>
<path d="M0 0 C2.91985181 0.68088981 5.35122304 1.58101234 8 3 C8.33 2.01 8.66 1.02 9 0 C9.66 0 10.32 0 11 0 C11 2.31 11 4.62 11 7 C10.01 6.67 9.02 6.34 8 6 C8.495 6.7425 8.495 6.7425 9 7.5 C11.20566788 13.01416969 9.95247284 19.28516296 9 25 C8.34 24.67 7.68 24.34 7 24 C6.67 24.99 6.34 25.98 6 27 C4.35 27 2.7 27 1 27 C0.67 48.45 0.34 69.9 0 92 C-0.33 92 -0.66 92 -1 92 C-1.02333699 82.36716617 -1.04102261 72.73434231 -1.05181217 63.10148621 C-1.05699483 58.62689199 -1.06400683 54.15231734 -1.07543945 49.67773438 C-1.08643465 45.34644381 -1.09231144 41.01517187 -1.09487724 36.68386841 C-1.09670192 35.04476631 -1.10026367 33.40566504 -1.10573006 31.76657104 C-1.13972212 21.13547964 -0.79801749 10.60207892 0 0 Z " fill="#977A53" transform="translate(184,229)"/>
<path d="M0 0 C0.99 0.66 1.98 1.32 3 2 C3 2.99 3 3.98 3 5 C3.33 4.34 3.66 3.68 4 3 C8.455 3.99 8.455 3.99 13 5 C13 5.99 13 6.98 13 8 C13.66 7.34 14.32 6.68 15 6 C15 6.66 15 7.32 15 8 C15.66 8 16.32 8 17 8 C17.33 7.34 17.66 6.68 18 6 C18.33 7.32 18.66 8.64 19 10 C21.31 10.33 23.62 10.66 26 11 C26.33 12.65 26.66 14.3 27 16 C26.01 15.67 25.02 15.34 24 15 C24.33 17.31 24.66 19.62 25 22 C21.57703036 22.74010154 18.49869895 23 15 23 C15 22.01 15 21.02 15 20 C14.01 19.67 13.02 19.34 12 19 C12 18.34 12 17.68 12 17 C11.34 17 10.68 17 10 17 C10 15.68 10 14.36 10 13 C8.865625 12.731875 7.73125 12.46375 6.5625 12.1875 C4.7990625 11.5996875 4.7990625 11.5996875 3 11 C2.67 10.01 2.34 9.02 2 8 C1.34 8 0.68 8 0 8 C-1.38232443 6.37373596 -2.71937515 4.7074998 -4 3 C-3 1 -3 1 0 0 Z " fill="#947247" transform="translate(205,218)"/>
<path d="M0 0 C0.33 0 0.66 0 1 0 C1.33 2.31 1.66 4.62 2 7 C3.32 7 4.64 7 6 7 C6.66 8.65 7.32 10.3 8 12 C8.99 11.67 9.98 11.34 11 11 C11.87890625 17.15234375 11.87890625 17.15234375 12 19 C11.67 19.33 11.34 19.66 11 20 C10.95936168 21.66617115 10.957279 23.33388095 11 25 C9.66666667 25.33333333 8.33333333 25.66666667 7 26 C6.29875 26.20625 5.5975 26.4125 4.875 26.625 C3 27 3 27 1 26 C1 46.79 1 67.58 1 89 C0.67 89 0.34 89 0 89 C0 59.63 0 30.26 0 0 Z " fill="#DDC193" transform="translate(183,156)"/>
<path d="M0 0 C0.66 0.66 1.32 1.32 2 2 C1.01 2.495 1.01 2.495 0 3 C-0.65772428 6.02934491 -0.65772428 6.02934491 -1 9 C-2.093125 8.814375 -3.18625 8.62875 -4.3125 8.4375 C-7.93624133 7.7421932 -7.93624133 7.7421932 -11 9 C-12.32 9 -13.64 9 -15 9 C-15 11.64 -15 14.28 -15 17 C-13.68 17.66 -12.36 18.32 -11 19 C-11.48941176 24.50588235 -11.48941176 24.50588235 -13.9375 26.875 C-16 28 -16 28 -18 28 C-18.33 26.35 -18.66 24.7 -19 23 C-19.99 23 -20.98 23 -22 23 C-22.054348 20.9377952 -22.09294961 18.87517184 -22.125 16.8125 C-22.14820313 15.66394531 -22.17140625 14.51539063 -22.1953125 13.33203125 C-22.00484152 10.08259628 -21.39360127 7.91339479 -20 5 C-19.01 5 -18.02 5 -17 5 C-16.2575 4.835 -15.515 4.67 -14.75 4.5 C-11.46403444 3.90255172 -8.33271778 3.93465259 -5 4 C-5 3.34 -5 2.68 -5 2 C-3.35 1.34 -1.7 0.68 0 0 Z " fill="#AB8B5E" transform="translate(263,263)"/>
<path d="M0 0 C1.78806614 1.62551467 2.92233836 2.81694042 3.875 5.0625 C5.41329016 7.71177751 7.15111923 8.10035344 10 9 C10 9.33 10 9.66 10 10 C14.28809069 11.45853425 18.55638276 12.90714208 22.9375 14.0625 C26 15 26 15 28 17 C28.125 19.625 28.125 19.625 28 22 C25 22 25 22 22 21 C22 20.34 22 19.68 22 19 C21.34 18.67 20.68 18.34 20 18 C19.67 18.33 19.34 18.66 19 19 C17 18 17 18 15.5625 16.4375 C13.98589466 14.66147173 13.98589466 14.66147173 11 15 C10.01 15 9.02 15 8 15 C7.67 15.33 7.34 15.66 7 16 C4.5625 15.8125 4.5625 15.8125 2 15 C0.6875 12.9375 0.6875 12.9375 0 11 C0 12.32 0 13.64 0 15 C-1.32 14.34 -2.64 13.68 -4 13 C-4.63019694 4.80743982 -4.63019694 4.80743982 -2 1.4375 C-1.34 0.963125 -0.68 0.48875 0 0 Z " fill="#BC9B69" transform="translate(188,187)"/>
<path d="M0 0 C6.5658616 6.17963445 10.95196257 12.29697308 14.0546875 20.796875 C15.20695478 23.48232436 16.79659315 25.11136556 19 27 C19 27.66 19 28.32 19 29 C17.22604492 28.57533503 15.45589369 28.1347591 13.6875 27.6875 C12.70136719 27.44386719 11.71523437 27.20023438 10.69921875 26.94921875 C7.99344818 25.99769596 6.75141937 25.22962262 5 23 C5 22.67 5 22.34 5 22 C4.01 22 3.02 22 2 22 C2 21.01 2 20.02 2 19 C1.01 19 0.02 19 -1 19 C-0.505 17.515 -0.505 17.515 0 16 C0.33 16.33 0.66 16.66 1 17 C0.34 16.01 -0.32 15.02 -1 14 C-0.34 13.01 0.32 12.02 1 11 C1.66 11.33 2.32 11.66 3 12 C3 10.35 3 8.7 3 7 C1.68 6.34 0.36 5.68 -1 5 C-0.67 3.35 -0.34 1.7 0 0 Z " fill="#C09E6C" transform="translate(217,196)"/>
<path d="M0 0 C0.33 0.99 0.66 1.98 1 3 C1.33 3.33 1.66 3.66 2 4 C2.99 3.34 3.98 2.68 5 2 C5.45375 2.474375 5.9075 2.94875 6.375 3.4375 C7.93258204 5.09027808 7.93258204 5.09027808 10 6 C10.33 4.68 10.66 3.36 11 2 C12.32 2.33 13.64 2.66 15 3 C15 3.66 15 4.32 15 5 C14.030625 5.45375 13.06125 5.9075 12.0625 6.375 C7.40774446 8.97256215 4.37417647 12.88998231 1.015625 16.953125 C0.35046875 17.62859375 -0.3146875 18.3040625 -1 19 C-1.99 19 -2.98 19 -4 19 C-6.04296875 16.59375 -6.04296875 16.59375 -8.1875 13.5 C-8.90292969 12.4790625 -9.61835938 11.458125 -10.35546875 10.40625 C-10.89816406 9.6121875 -11.44085938 8.818125 -12 8 C-11.67 7.34 -11.34 6.68 -11 6 C-8.69 6.66 -6.38 7.32 -4 8 C-4.33 6.68 -4.66 5.36 -5 4 C-4.34 4 -3.68 4 -3 4 C-3 3.34 -3 2.68 -3 2 C-3.66 1.67 -4.32 1.34 -5 1 C-2 0 -2 0 0 0 Z M-1 5 C0 7 0 7 0 7 Z " fill="#775B36" transform="translate(237,244)"/>
<path d="M0 0 C0.66 0 1.32 0 2 0 C2.99 1.98 3.98 3.96 5 6 C5.99 6 6.98 6 8 6 C9 8 9 8 10 11 C13.465 10.505 13.465 10.505 17 10 C17.33 8.68 17.66 7.36 18 6 C18.66 6 19.32 6 20 6 C20.33 6.99 20.66 7.98 21 9 C23.60242414 10.64820195 24.86248779 11 28 11 C28 12.65 28 14.3 28 16 C28.66 16.33 29.32 16.66 30 17 C26.89424795 18.84647218 25.00197682 19.18809488 21.4375 18.6875 C20.67308594 18.58824219 19.90867187 18.48898437 19.12109375 18.38671875 C17 18 17 18 14 17 C14 16.34 14 15.68 14 15 C13.43796875 14.89558594 12.8759375 14.79117187 12.296875 14.68359375 C9.57619529 13.87386765 7.60742193 12.63796662 5.25 11.0625 C4.45078125 10.53785156 3.6515625 10.01320313 2.828125 9.47265625 C2.22484375 8.98667969 1.6215625 8.50070312 1 8 C1 7.34 1 6.68 1 6 C0.01 5.67 -0.98 5.34 -2 5 C-1.34 3.35 -0.68 1.7 0 0 Z " fill="#5E4525" transform="translate(273,319)"/>
<path d="M0 0 C0.66 0 1.32 0 2 0 C2 14.85 2 29.7 2 45 C1.34 45 0.68 45 0 45 C-0.33 43.02 -0.66 41.04 -1 39 C-1.33 39.66 -1.66 40.32 -2 41 C-2.66 41 -3.32 41 -4 41 C-4.1546875 41.9590625 -4.1546875 41.9590625 -4.3125 42.9375 C-4.539375 43.618125 -4.76625 44.29875 -5 45 C-6.485 45.495 -6.485 45.495 -8 46 C-8.66 45.67 -9.32 45.34 -10 45 C-10.4021875 45.9590625 -10.4021875 45.9590625 -10.8125 46.9375 C-12 49 -12 49 -15 50 C-15 45.81185084 -13.18271605 43.37983539 -10.5 40.25 C-9 39 -9 39 -6 38 C-6.66 37.34 -7.32 36.68 -8 36 C-7.625 33.875 -7.625 33.875 -7 32 C-6.01 32 -5.02 32 -4 32 C-3.896875 31.360625 -3.79375 30.72125 -3.6875 30.0625 C-3.460625 29.381875 -3.23375 28.70125 -3 28 C-2.01 27.67 -1.02 27.34 0 27 C0 18.09 0 9.18 0 0 Z " fill="#7E633D" transform="translate(326,152)"/>
<path d="M0 0 C1.24546405 2.49092811 0.7767578 3.41080733 0 6 C-0.66 6 -1.32 6 -2 6 C-2 6.99 -2 7.98 -2 9 C-4 11.1875 -4 11.1875 -6 13 C-4.35 13 -2.7 13 -1 13 C-1.66 13.66 -2.32 14.32 -3 15 C-3.99 15 -4.98 15 -6 15 C-5.01 16.485 -5.01 16.485 -4 18 C-2.68 18 -1.36 18 0 18 C0.33 17.01 0.66 16.02 1 15 C1.66 15 2.32 15 3 15 C3.33 14.01 3.66 13.02 4 12 C4.99 13.32 5.98 14.64 7 16 C3.04533792 18.17341896 -0.91431341 20.33758201 -4.875 22.5 C-6.00292969 23.12003906 -7.13085938 23.74007812 -8.29296875 24.37890625 C-9.36933594 24.96542969 -10.44570313 25.55195313 -11.5546875 26.15625 C-12.54968262 26.70087891 -13.54467773 27.24550781 -14.56982422 27.80664062 C-17 29 -17 29 -19 29 C-17.49341305 24.563476 -15.06765453 21.04731067 -12.3125 17.3125 C-11.41496017 16.07711663 -10.51782765 14.84143725 -9.62109375 13.60546875 C-9.17878418 12.99880371 -8.73647461 12.39213867 -8.28076172 11.76708984 C-6.44933088 9.24023196 -4.66043621 6.68449035 -2.875 4.125 C-2.31554687 3.32320312 -1.75609375 2.52140625 -1.1796875 1.6953125 C-0.79039062 1.13585937 -0.40109375 0.57640625 0 0 Z " fill="#A99471" transform="translate(284,212)"/>
<path d="M0 0 C1.98 0.99 1.98 0.99 4 2 C4 2.99 4 3.98 4 5 C4.66 5 5.32 5 6 5 C6.66 3.68 7.32 2.36 8 1 C8 1.66 8 2.32 8 3 C9.98 3 11.96 3 14 3 C13.67 3.99 13.34 4.98 13 6 C14.32 6 15.64 6 17 6 C19.0625 6.125 19.0625 6.125 21 7 C22 9 23 11 24 13 C26.07690578 13.96044102 26.07690578 13.96044102 28 14 C28 15.32 28 16.64 28 18 C27.01 18 26.02 18 25 18 C24.34 18.66 23.68 19.32 23 20 C22.979375 19.401875 22.95875 18.80375 22.9375 18.1875 C22.09543384 15.56685398 22.09543384 15.56685398 18.4375 14.25 C16.7359375 13.63125 16.7359375 13.63125 15 13 C14.67 13.99 14.34 14.98 14 16 C12 13 12 13 12 11 C11.1028125 11.3403125 11.1028125 11.3403125 10.1875 11.6875 C9.465625 11.790625 8.74375 11.89375 8 12 C6.5625 10.6875 6.5625 10.6875 5 9 C2.40084462 7.80972016 2.40084462 7.80972016 0 7 C0 4.69 0 2.38 0 0 Z " fill="#98784D" transform="translate(194,208)"/>
<path d="M0 0 C2 3 2 3 3 6 C5.47266765 5.65555119 5.47266765 5.65555119 8 5 C8.33 4.34 8.66 3.68 9 3 C9.84198307 4.09758507 10.67330671 5.20335317 11.5 6.3125 C12.19609375 7.23482422 12.19609375 7.23482422 12.90625 8.17578125 C14 10 14 10 14 13 C9.125 14 9.125 14 8 14 C7.67 14.66 7.34 15.32 7 16 C6.0925 15.649375 5.185 15.29875 4.25 14.9375 C1.12241564 14.03531221 -0.05208081 13.86618493 -3 15 C-3 13.33333333 -3 11.66666667 -3 10 C-3.99 10.33 -4.98 10.66 -6 11 C-6 10.34 -6 9.68 -6 9 C-6.66 8.67 -7.32 8.34 -8 8 C-7.34 7.67 -6.68 7.34 -6 7 C-6.66 6.67 -7.32 6.34 -8 6 C-8 5.34 -8 4.68 -8 4 C-4.535 3.505 -4.535 3.505 -1 3 C-0.67 2.01 -0.34 1.02 0 0 Z " fill="#7D5F38" transform="translate(240,234)"/>
<path d="M0 0 C1.9375 0.8125 1.9375 0.8125 4 2 C4.33 2.99 4.66 3.98 5 5 C5.65129797 6.34090759 6.31513275 7.67592331 7 9 C7.99 8.67 8.98 8.34 10 8 C10.33 8.99 10.66 9.98 11 11 C11.99 11.33 12.98 11.66 14 12 C14 11.34 14 10.68 14 10 C17 11 17 11 18.1875 12.9375 C19 15 19 15 19 17 C19.99 17.66 20.98 18.32 22 19 C18.31020833 20.22993056 17.43667559 19.59260576 14 18 C13.360625 17.649375 12.72125 17.29875 12.0625 16.9375 C9.42797354 15.73998797 6.8501785 15.43372281 4 15 C3.34 14.67 2.68 14.34 2 14 C2 13.34 2 12.68 2 12 C0.68 11.34 -0.64 10.68 -2 10 C-2 9.01 -2 8.02 -2 7 C-2.99 6.67 -3.98 6.34 -5 6 C-3.35 4.02 -1.7 2.04 0 0 Z " fill="#CDAD78" transform="translate(193,183)"/>
<path d="M0 0 C0 3.86695678 -1.41909971 6.5088452 -3 10 C-3.556875 9.814375 -4.11375 9.62875 -4.6875 9.4375 C-7.399133 8.92448835 -9.34371039 9.3359276 -12 10 C-12 10.66 -12 11.32 -12 12 C-14.31 12 -16.62 12 -19 12 C-19.33 12.66 -19.66 13.32 -20 14 C-23.0625 14.625 -23.0625 14.625 -26 15 C-25.4739075 11.21213403 -24.61896089 8.82847776 -22 6 C-21.34 6 -20.68 6 -20 6 C-19.34 4.68 -18.68 3.36 -18 2 C-17.34 2.33 -16.68 2.66 -16 3 C-16.33 3.33 -16.66 3.66 -17 4 C-15.68 4.33 -14.36 4.66 -13 5 C-12.67 4.01 -12.34 3.02 -12 2 C-8.535 3.485 -8.535 3.485 -5 5 C-4.731875 4.360625 -4.46375 3.72125 -4.1875 3.0625 C-3 1 -3 1 0 0 Z " fill="#BDA275" transform="translate(270,255)"/>
<path d="M0 0 C1.32 0.66 2.64 1.32 4 2 C3.49396008 4.16874252 3.00016187 5.99967627 2 8 C1.01 8.495 1.01 8.495 0 9 C-0.99 8.67 -1.98 8.34 -3 8 C-2.71125 8.886875 -2.4225 9.77375 -2.125 10.6875 C-2 14 -2 14 -4.375 16.5625 C-8.33508088 19.43916253 -12.66818096 21.73782783 -17 24 C-17.33 22.68 -17.66 21.36 -18 20 C-17.01 19.67 -16.02 19.34 -15 19 C-15.33 17.35 -15.66 15.7 -16 14 C-11.25 11 -11.25 11 -9 11 C-8.95875 10.401875 -8.9175 9.80375 -8.875 9.1875 C-7.54890668 5.87226671 -5.17467889 5.36057667 -2 4 C-1.34 3.67 -0.68 3.34 0 3 C0 2.01 0 1.02 0 0 Z " fill="#9A794C" transform="translate(308,203)"/>
<path d="M0 0 C0.33 0 0.66 0 1 0 C1 3.63 1 7.26 1 11 C1.99 11 2.98 11 4 11 C4.33 12.65 4.66 14.3 5 16 C6.98 15.67 8.96 15.34 11 15 C12.125 19.75 12.125 19.75 11 22 C12.65 22.33 14.3 22.66 16 23 C16 26.3 16 29.6 16 33 C13 33 13 33 10.87890625 30.9453125 C2.48470243 20.72505086 -0.82260651 13.2988052 0 0 Z " fill="#8A6B41" transform="translate(240,275)"/>
<path d="M0 0 C5.37682685 0.42171191 8.00340015 1.42409487 12 5 C12.928125 5.53625 13.85625 6.0725 14.8125 6.625 C15.534375 7.07875 16.25625 7.5325 17 8 C17 8.66 17 9.32 17 10 C17.66 10.66 18.32 11.32 19 12 C18.67 12.99 18.34 13.98 18 15 C15 14 15 14 13 11 C12.01 11.66 11.02 12.32 10 13 C7.66800612 13.07905064 5.33167378 13.08798769 3 13 C2.67 11.02 2.34 9.04 2 7 C2.66 6.67 3.32 6.34 4 6 C4 5.34 4 4.68 4 4 C2.68 3.67 1.36 3.34 0 3 C0 2.01 0 1.02 0 0 Z " fill="#A27F51" transform="translate(227,226)"/>
<path d="M0 0 C-1.35464694 3.15619207 -2.71094729 4.83237955 -5.484375 6.83984375 C-6.17273438 7.34580078 -6.86109375 7.85175781 -7.5703125 8.37304688 C-8.28960937 8.88931641 -9.00890625 9.40558594 -9.75 9.9375 C-11.16258938 10.96589612 -12.57406442 11.99582477 -13.984375 13.02734375 C-14.66435547 13.52218262 -15.34433594 14.01702148 -16.04492188 14.52685547 C-17.88948636 15.91672836 -19.64211924 17.37100593 -21.390625 18.87890625 C-24 21 -24 21 -26 21 C-26 21.66 -26 22.32 -26 23 C-26.66 23 -27.32 23 -28 23 C-29.33333333 21.66666667 -30.66666667 20.33333333 -32 19 C-31.22305786 18.56300781 -31.22305786 18.56300781 -30.43041992 18.1171875 C-21.26290481 12.9408123 -12.25588751 7.84194675 -3.93359375 1.36328125 C-2 0 -2 0 0 0 Z " fill="#867F6E" transform="translate(306,224)"/>
<path d="M0 0 C0.66 0 1.32 0 2 0 C3.24318454 3.72955362 2.62220112 4.51226759 1 8 C0.484375 8.99 -0.03125 9.98 -0.5625 11 C-1.8771485 13.74361426 -2.56025027 16.00970184 -3 19 C-5.64 19.66 -8.28 20.32 -11 21 C-11.33 20.01 -11.66 19.02 -12 18 C-11.34 17.67 -10.68 17.34 -10 17 C-9.7834375 15.576875 -9.7834375 15.576875 -9.5625 14.125 C-8.94692351 10.70513061 -8.53485395 10.15932003 -6 8 C-3.85114015 5.39532139 -1.8741454 2.8112181 0 0 Z " fill="#B4925D" transform="translate(312,182)"/>
<path d="M0 0 C0.66 0 1.32 0 2 0 C2.66 1.65 3.32 3.3 4 5 C4.66 5 5.32 5 6 5 C7.33203125 6.57421875 7.33203125 6.57421875 8.8125 8.6875 C10.71142421 11.32644614 12.46859479 13.45818157 14.8125 15.75 C16.95540756 17.95413349 17.66663937 18.99975436 18 22 C15.625 21.3125 15.625 21.3125 13 20 C12.67 19.154375 12.34 18.30875 12 17.4375 C11.67 16.633125 11.34 15.82875 11 15 C8.55936559 14.32852082 8.55936559 14.32852082 6 14 C5 13 4 12 3 11 C1.68 11 0.36 11 -1 11 C-0.67 9.02 -0.34 7.04 0 5 C-0.99 5 -1.98 5 -3 5 C-2 3 -2 3 0 0 Z " fill="#957B54" transform="translate(269,289)"/>
<path d="M0 0 C0.33 0 0.66 0 1 0 C0.85815167 3.02106753 0.71164333 6.04179097 0.5625 9.0625 C0.50352539 10.33383789 0.50352539 10.33383789 0.44335938 11.63085938 C0.19996611 16.48000209 -0.22598042 21.20628212 -1 26 C-1.33 26 -1.66 26 -2 26 C-2.33 23.36 -2.66 20.72 -3 18 C-4.32 18 -5.64 18 -7 18 C-7.66 19.32 -8.32 20.64 -9 22 C-9 16.72 -9 11.44 -9 6 C-8.67 6.99 -8.34 7.98 -8 9 C-6.35 9 -4.7 9 -3 9 C-2.67 7.68 -2.34 6.36 -2 5 C-1.67 5.33 -1.34 5.66 -1 6 C-0.67 4.02 -0.34 2.04 0 0 Z " fill="#6F5333" transform="translate(193,247)"/>
<path d="M0 0 C0.66 0 1.32 0 2 0 C1.85891477 3.14606461 1.71123864 6.29178868 1.5625 9.4375 C1.52318359 10.31599609 1.48386719 11.19449219 1.44335938 12.09960938 C1.17137332 17.76947262 0.68222355 23.36448953 0 29 C-0.33 29 -0.66 29 -1 29 C-1.66 25.37 -2.32 21.74 -3 18 C-2.34 18 -1.68 18 -1 18 C-0.67 16.02 -0.34 14.04 0 12 C-0.4125 12.515625 -0.825 13.03125 -1.25 13.5625 C-3 15 -3 15 -5.0625 14.875 C-7 14 -7 14 -9 11 C-8.01 10.67 -7.02 10.34 -6 10 C-6.33 8.68 -6.66 7.36 -7 6 C-6.401875 5.7525 -5.80375 5.505 -5.1875 5.25 C-2.71222841 3.83555909 -1.66569196 2.27139812 0 0 Z " fill="#7E633F" transform="translate(195,217)"/>
<path d="M0 0 C4.345262 3.93789369 7.60607211 8.44144035 11 13.2109375 C13.20817153 16.2903017 15.51759037 19.27696006 17.87109375 22.24609375 C19.09821777 24.15259439 19.5764859 25.78506996 20 28 C18.35 27.67 16.7 27.34 15 27 C14.938125 26.22785156 14.87625 25.45570313 14.8125 24.66015625 C14.26025611 21.82414013 14.26025611 21.82414013 11.75 20.55859375 C10.8425 20.18863281 9.935 19.81867188 9 19.4375 C6.25 18.30859375 6.25 18.30859375 4 17 C3.1875 14.84765625 3.1875 14.84765625 3 13 C4.32 13 5.64 13 7 13 C7 12.34 7 11.68 7 11 C6.01 10.67 5.02 10.34 4 10 C2.83203125 8.22265625 2.83203125 8.22265625 1.8125 6.0625 C1.46832031 5.35222656 1.12414062 4.64195312 0.76953125 3.91015625 C0 2 0 2 0 0 Z " fill="#A68D65" transform="translate(229,212)"/>
<path d="M0 0 C0.33 0 0.66 0 1 0 C1.18412933 5.86812174 0.46293831 11.39539276 -0.4375 17.1875 C-1.48126218 24.0967845 -2.36150896 30.93014427 -2.69140625 37.91796875 C-3 40 -3 40 -5 42 C-5.20100772 29.3141797 -4.58707468 16.66894665 -4 4 C-3.01 3.67 -2.02 3.34 -1 3 C-0.67 2.01 -0.34 1.02 0 0 Z " fill="#6B563A" transform="translate(188,293)"/>
<path d="M0 0 C0.33 0.66 0.66 1.32 1 2 C1.556875 1.731875 2.11375 1.46375 2.6875 1.1875 C3.450625 1.125625 4.21375 1.06375 5 1 C6.86238121 2.61070807 8.37086976 4.17608244 10 6 C11.26572252 7.25517483 12.53670173 8.50506782 13.8125 9.75 C14.89581113 10.81252264 15.96496587 11.89039569 17 13 C17 13.33 17 13.66 17 14 C11.375 15.125 11.375 15.125 8 14 C8 12.35 8 10.7 8 9 C7.01 9 6.02 9 5 9 C4.67 9.99 4.34 10.98 4 12 C3.67 11.01 3.34 10.02 3 9 C2.01 8.34 1.02 7.68 0 7 C0 6.01 0 5.02 0 4 C-0.66 3.67 -1.32 3.34 -2 3 C-1.34 2.01 -0.68 1.02 0 0 Z " fill="#725630" transform="translate(293,321)"/>
<path d="M0 0 C0.66 0 1.32 0 2 0 C2 5.94 2 11.88 2 18 C1.34 17.01 0.68 16.02 0 15 C-3.60992379 15.65585189 -3.60992379 15.65585189 -7 17 C-7.40539399 11.94008246 -6.41470049 9.32663053 -3.625 5.125 C-2.99851562 4.15820312 -2.37203125 3.19140625 -1.7265625 2.1953125 C-1.15679687 1.47085938 -0.58703125 0.74640625 0 0 Z " fill="#D0B88B" transform="translate(325,153)"/>
<path d="M0 0 C4.12030564 3.29624452 6.70428002 5.87632507 9.8125 10 C10.60269531 11.03125 11.39289063 12.0625 12.20703125 13.125 C14.23851881 16.38246154 14 18.26131643 14 22 C13.34 22 12.68 22 12 22 C11.34 20.02 10.68 18.04 10 16 C9.01 16 8.02 16 7 16 C6.67 14.35 6.34 12.7 6 11 C4.35 11.66 2.7 12.32 1 13 C0.67 8.71 0.34 4.42 0 0 Z " fill="#B19C7A" transform="translate(183,152)"/>
<path d="M0 0 C1 4 1 4 1 4 Z M-8 1 C-7.67 1 -7.34 1 -7 1 C-7 2.65 -7 4.3 -7 6 C-6.67 5.34 -6.34 4.68 -6 4 C-4.02 4 -2.04 4 0 4 C0.66964286 11.76785714 0.66964286 11.76785714 -2.3125 15.5 C-5 18 -5 18 -8 18 C-8 14.33333333 -8 10.66666667 -8 7 C-8.94978897 4.84971696 -8.94978897 4.84971696 -10 3 C-9.34 2.34 -8.68 1.68 -8 1 Z " fill="#B89460" transform="translate(325,164)"/>
<path d="M0 0 C1.24546405 2.49092811 0.7767578 3.41080733 0 6 C-0.66 6 -1.32 6 -2 6 C-2 6.99 -2 7.98 -2 9 C-4 11.1875 -4 11.1875 -6 13 C-4.35 13 -2.7 13 -1 13 C-1.66 13.66 -2.32 14.32 -3 15 C-3.99 15 -4.98 15 -6 15 C-5.01 16.485 -5.01 16.485 -4 18 C-2.68 18 -1.36 18 0 18 C0.33 17.01 0.66 16.02 1 15 C1.66 15 2.32 15 3 15 C3.33 14.01 3.66 13.02 4 12 C4.99 13.32 5.98 14.64 7 16 C5.21118264 17.00508801 3.41885304 18.00392736 1.625 19 C0.62726563 19.556875 -0.37046875 20.11375 -1.3984375 20.6875 C-4 22 -4 22 -6 22 C-6.1953125 19.94921875 -6.390625 17.8984375 -6.5859375 15.84765625 C-6.79089844 14.93306641 -6.79089844 14.93306641 -7 14 C-7.66 13.67 -8.32 13.34 -9 13 C-6.03 8.71 -3.06 4.42 0 0 Z " fill="#977D55" transform="translate(284,212)"/>
<path d="M0 0 C2.4609375 1.2578125 2.4609375 1.2578125 5.375 3.125 C6.33148438 3.72570312 7.28796875 4.32640625 8.2734375 4.9453125 C11.0572858 7.04316953 12.95213386 9.19510277 15 12 C10.46692139 11.38872122 6.51063826 10.2166879 2.25 8.5625 C1.12078125 8.13066406 -0.0084375 7.69882812 -1.171875 7.25390625 C-4 6 -4 6 -6 4 C-4.68 3.67 -3.36 3.34 -2 3 C-2 2.34 -2 1.68 -2 1 C-1.34 0.67 -0.68 0.34 0 0 Z " fill="#48341C" transform="translate(324,347)"/>
<path d="M0 0 C0.2475 0.61875 0.495 1.2375 0.75 1.875 C2.23281451 4.39578467 3.40863958 4.7852998 6 6 C6.99 7.485 6.99 7.485 8 9 C6.68 9 5.36 9 4 9 C4 8.34 4 7.68 4 7 C2.02 7.99 2.02 7.99 0 9 C-1.53445094 5.93109813 -0.54984289 3.29905734 0 0 Z M-4 7 C-3.67 7.66 -3.34 8.32 -3 9 C-2.01 9 -1.02 9 0 9 C-0.66 10.32 -1.32 11.64 -2 13 C-2.66 13 -3.32 13 -4 13 C-3.67 14.98 -3.34 16.96 -3 19 C-3.99 18.67 -4.98 18.34 -6 18 C-6.66 18.66 -7.32 19.32 -8 20 C-9 19 -9 19 -9.09765625 16.71484375 C-9.08605469 15.79832031 -9.07445312 14.88179687 -9.0625 13.9375 C-9.05347656 13.01839844 -9.04445312 12.09929687 -9.03515625 11.15234375 C-9.02355469 10.44207031 -9.01195312 9.73179687 -9 9 C-7.33333333 9 -5.66666667 9 -4 9 C-4 8.34 -4 7.68 -4 7 Z " fill="#896B43" transform="translate(193,210)"/>
<path d="M0 0 C0.99 0.33 1.98 0.66 3 1 C3 3.31 3 5.62 3 8 C4.65 8.33 6.3 8.66 8 9 C8 9.99 8 10.98 8 12 C7.01 12.33 6.02 12.66 5 13 C5 12.34 5 11.68 5 11 C2.36 11.33 -0.28 11.66 -3 12 C-3.103125 11.360625 -3.20625 10.72125 -3.3125 10.0625 C-3.539375 9.381875 -3.76625 8.70125 -4 8 C-4.99 7.67 -5.98 7.34 -7 7 C-7 6.01 -7 5.02 -7 4 C-6.01 4 -5.02 4 -4 4 C-3.67 3.34 -3.34 2.68 -3 2 C-2.01 2.33 -1.02 2.66 0 3 C0 2.01 0 1.02 0 0 Z " fill="#DBBD8B" transform="translate(201,178)"/>
<path d="M0 0 C2.97 0.495 2.97 0.495 6 1 C6.07089844 1.62390625 6.14179688 2.2478125 6.21484375 2.890625 C6.80004532 5.19229321 6.80004532 5.19229321 9.06640625 6.046875 C9.89011719 6.27890625 10.71382812 6.5109375 11.5625 6.75 C12.38878906 6.99234375 13.21507812 7.2346875 14.06640625 7.484375 C14.70449219 7.65453125 15.34257812 7.8246875 16 8 C15 10 15 10 12 12 C12 11.34 12 10.68 12 10 C11.01 10 10.02 10 9 10 C9 10.66 9 11.32 9 12 C8.01 12 7.02 12 6 12 C4.9935725 10.33720673 3.99414593 8.67016516 3 7 C0.93299345 5.67206394 0.93299345 5.67206394 -1 5 C-0.67 3.35 -0.34 1.7 0 0 Z " fill="#AA8959" transform="translate(218,216)"/>
<path d="M0 0 C1.32 0.33 2.64 0.66 4 1 C4 4 4 4 2.0234375 6.12109375 C-2.48645097 10.06558323 -6.86648585 13.89287301 -12 17 C-12.66 15.02 -13.32 13.04 -14 11 C-12 10 -12 10 -9 10 C-8.34 8.68 -7.68 7.36 -7 6 C-5.68 6.33 -4.36 6.66 -3 7 C-2.67 6.01 -2.34 5.02 -2 4 C-1.34 3.34 -0.68 2.68 0 2 C0 1.34 0 0.68 0 0 Z " fill="#7F6642" transform="translate(318,200)"/>
<path d="M0 0 C2.4189043 2.26772278 3.8785762 4.03807118 4.30078125 7.3828125 C4.32001791 11.67900085 4.11233455 15.82874543 3 20 C2.67 19.34 2.34 18.68 2 18 C1.01 18.33 0.02 18.66 -1 19 C-1.02683987 16.02077407 -1.04676037 13.04178705 -1.0625 10.0625 C-1.07087891 9.21236328 -1.07925781 8.36222656 -1.08789062 7.48632812 C-1.09111328 6.67744141 -1.09433594 5.86855469 -1.09765625 5.03515625 C-1.10289307 4.2862915 -1.10812988 3.53742676 -1.11352539 2.76586914 C-1 1 -1 1 0 0 Z " fill="#7F643F" transform="translate(185,278)"/>
<path d="M0 0 C5.76167012 5.42274835 11.03835796 11.15343182 13 19 C10.69 18.67 8.38 18.34 6 18 C6 16.68 6 15.36 6 14 C5.34 14 4.68 14 4 14 C3.87625 12.329375 3.87625 12.329375 3.75 10.625 C3.42126213 6.94246056 3.42126213 6.94246056 0.9375 5.5625 C0.298125 5.376875 -0.34125 5.19125 -1 5 C-0.67 3.35 -0.34 1.7 0 0 Z " fill="#BCA47D" transform="translate(217,196)"/>
<path d="M0 0 C0.99 0.33 1.98 0.66 3 1 C2.875 3.25 2.875 3.25 2 6 C1.030625 6.639375 0.06125 7.27875 -0.9375 7.9375 C-4.54348203 10.36601851 -5.09453294 11.83485154 -6 16 C-6 16.66 -6 17.32 -6 18 C-6.66 18 -7.32 18 -8 18 C-8.268125 18.639375 -8.53625 19.27875 -8.8125 19.9375 C-10 22 -10 22 -13 23 C-13.3125 20.3125 -13.3125 20.3125 -13 17 C-10.625 14.4375 -10.625 14.4375 -8 12 C-7.67 11.113125 -7.34 10.22625 -7 9.3125 C-6 7 -6 7 -3.375 5.6875 C-2.59125 5.460625 -1.8075 5.23375 -1 5 C-1.33 3.68 -1.66 2.36 -2 1 C-1.34 0.67 -0.68 0.34 0 0 Z " fill="#A48254" transform="translate(317,186)"/>
<path d="M0 0 C0.99 0.33 1.98 0.66 3 1 C2.67 2.32 2.34 3.64 2 5 C1.01 4.01 0.02 3.02 -1 2 C-0.67 1.34 -0.34 0.68 0 0 Z M-6 3 C-5.67 3.66 -5.34 4.32 -5 5 C-4.34 5 -3.68 5 -3 5 C-2.67 4.34 -2.34 3.68 -2 3 C-1.34 3.33 -0.68 3.66 0 4 C0.40729228 6.32156597 0.74438677 8.6568787 1 11 C-2.42296964 11.74010154 -5.50130105 12 -9 12 C-8.67 10.68 -8.34 9.36 -8 8 C-7.34 8 -6.68 8 -6 8 C-6.2784375 7.0409375 -6.2784375 7.0409375 -6.5625 6.0625 C-6.706875 5.381875 -6.85125 4.70125 -7 4 C-6.67 3.67 -6.34 3.34 -6 3 Z " fill="#8B6C42" transform="translate(229,229)"/>
<path d="M0 0 C5.3483102 1.82026619 9.61191295 5.00044215 14.20898438 8.19140625 C18.64844858 11.2239018 23.14584115 13.68336481 28 16 C28 16.66 28 17.32 28 18 C22.12555378 17.2273971 18.32864868 15.96599305 14.0390625 11.859375 C11.36848494 9.4241357 8.47492489 7.31965171 5.5625 5.1875 C3.69023531 3.8160374 1.83001453 2.42735123 0 1 C0 0.67 0 0.34 0 0 Z " fill="#665541" transform="translate(321,344)"/>
<path d="M0 0 C6.37160365 3.38491444 11.62813975 8.26013185 16.25 13.75 C20.98413056 19.35591684 26.53869623 24.121594 32 29 C31.67 29.66 31.34 30.32 31 31 C29.1439044 29.31457986 27.28971051 27.62718302 25.4375 25.9375 C24.8904541 25.43887451 24.3434082 24.94024902 23.77978516 24.42651367 C20.16261562 21.11264717 16.66868565 17.71773326 13.3046875 14.14453125 C12.03867981 12.78017996 12.03867981 12.78017996 10 13 C9.608125 12.29875 9.21625 11.5975 8.8125 10.875 C6.75140528 7.60567734 4.43843391 5.69599679 1.42578125 3.33203125 C0.95527344 2.89246094 0.48476563 2.45289063 0 2 C0 1.34 0 0.68 0 0 Z " fill="#7A6C51" transform="translate(288,312)"/>
<path d="M0 0 C0.66 0 1.32 0 2 0 C2.99 1.98 3.98 3.96 5 6 C5.99 6 6.98 6 8 6 C9 8 9 8 10 11 C10.99 11.33 11.98 11.66 13 12 C13 12.99 13 13.98 13 15 C8.50985376 13.50328459 4.52151236 11.16631659 1 8 C1 7.34 1 6.68 1 6 C0.01 5.67 -0.98 5.34 -2 5 C-1.34 3.35 -0.68 1.7 0 0 Z " fill="#553F25" transform="translate(273,319)"/>
<path d="M0 0 C1.36511719 0.29197266 1.36511719 0.29197266 2.7578125 0.58984375 C3.45648438 0.74582031 4.15515625 0.90179688 4.875 1.0625 C5.97158936 4.35226808 5.67453138 5.77553767 4.875 9.0625 C2.4 8.0725 2.4 8.0725 -0.125 7.0625 C-0.125 6.4025 -0.125 5.7425 -0.125 5.0625 C-0.785 4.7325 -1.445 4.4025 -2.125 4.0625 C-2.455 4.3925 -2.785 4.7225 -3.125 5.0625 C-5.63583114 3.80708443 -5.99625446 2.56186512 -7.125 0.0625 C-4.4030754 -1.2984623 -2.9418043 -0.64116248 0 0 Z " fill="#C19F6D" transform="translate(210.125,200.9375)"/>
<path d="M0 0 C1.1351555 3.4054665 0.84899821 4.31723087 -0.25 7.625 C-0.50265625 8.42164063 -0.7553125 9.21828125 -1.015625 10.0390625 C-2 12 -2 12 -5 13 C-5.33 14.65 -5.66 16.3 -6 18 C-8 17 -8 17 -9 16 C-9 11.86002304 -6.83167083 9.54392969 -4.5 6.3125 C-4.07074219 5.70599609 -3.64148438 5.09949219 -3.19921875 4.47460938 C-2.13906862 2.97861974 -1.07034429 1.488713 0 0 Z " fill="#AD9A75" transform="translate(314,169)"/>
<path d="M0 0 C1.70884005 1.62339805 3.37446717 3.29319053 5 5 C5 5.66 5 6.32 5 7 C5.66 7 6.32 7 7 7 C11 12.41176471 11 12.41176471 11 15 C11.66 15 12.32 15 13 15 C12.67 15.66 12.34 16.32 12 17 C10.0625 16.6875 10.0625 16.6875 8 16 C7.67 15.01 7.34 14.02 7 13 C6.01 12.34 5.02 11.68 4 11 C4 10.34 4 9.68 4 9 C2.35 8.67 0.7 8.34 -1 8 C-0.67 5.36 -0.34 2.72 0 0 Z " fill="#AD9B7B" transform="translate(204,179)"/>
<path d="M0 0 C0.66 0 1.32 0 2 0 C2.33 0.99 2.66 1.98 3 3 C3.99 3.66 4.98 4.32 6 5 C6 5.99 6 6.98 6 8 C4.02 8.66 2.04 9.32 0 10 C0 9.34 0 8.68 0 8 C-1.98 8.99 -1.98 8.99 -4 10 C-6 6.25 -6 6.25 -6 4 C-4.35 4 -2.7 4 -1 4 C-0.67 2.68 -0.34 1.36 0 0 Z " fill="#65492B" transform="translate(291,325)"/>
<path d="M0 0 C0.33 0 0.66 0 1 0 C1.36789096 4.29206125 0.48155943 6.50743487 -2 10 C-3.5625 11.8125 -3.5625 11.8125 -5 13 C-5.66 13 -6.32 13 -7 13 C-7.33 15.31 -7.66 17.62 -8 20 C-8.99 20.33 -9.98 20.66 -11 21 C-11.66 20.67 -12.32 20.34 -13 20 C-12.34 18.35 -11.68 16.7 -11 15 C-10.34 15 -9.68 15 -9 15 C-8.61521484 13.92685547 -8.61521484 13.92685547 -8.22265625 12.83203125 C-6.91928089 9.81303082 -5.33862527 7.36653874 -3.4375 4.6875 C-2.81746094 3.80449219 -2.19742187 2.92148438 -1.55859375 2.01171875 C-0.78708984 1.01591797 -0.78708984 1.01591797 0 0 Z " fill="#A79878" transform="translate(298,192)"/>
<path d="M0 0 C2 3 2 3 3 6 C5.00016466 7.20882096 5.00016466 7.20882096 7 8 C0.25 10.125 0.25 10.125 -2 9 C-4.11683841 9.89163577 -4.11683841 9.89163577 -6 11 C-6 10.34 -6 9.68 -6 9 C-6.66 8.67 -7.32 8.34 -8 8 C-7.34 7.67 -6.68 7.34 -6 7 C-6.66 6.67 -7.32 6.34 -8 6 C-8 5.34 -8 4.68 -8 4 C-4.535 3.505 -4.535 3.505 -1 3 C-0.67 2.01 -0.34 1.02 0 0 Z " fill="#8C6C42" transform="translate(240,234)"/>
<path d="M0 0 C0 1.32 0 2.64 0 4 C0.66 4.33 1.32 4.66 2 5 C1.01 5.33 0.02 5.66 -1 6 C-1.66 5.67 -2.32 5.34 -3 5 C-3.99 6.485 -3.99 6.485 -5 8 C-5.99 7.67 -6.98 7.34 -8 7 C-9 5 -9 5 -10 2 C-9 0 -9 0 -7.25 -0.6875 C-4.60760177 -1.05449975 -2.57327078 -0.64331769 0 0 Z " fill="#A28053" transform="translate(205,206)"/>
<path d="M0 0 C1.32 0 2.64 0 4 0 C6 2 6 2 6 3 C8.97 3.495 8.97 3.495 12 4 C10.9375 5.5 10.9375 5.5 9 7 C3.9840218 7.55733091 1.08016757 6.9673946 -3 4 C-2.34 3.67 -1.68 3.34 -1 3 C-0.67 2.01 -0.34 1.02 0 0 Z " fill="#806138" transform="translate(258,306)"/>
<path d="M0 0 C4.93736674 0.296242 4.93736674 0.296242 7.125 1.1875 C7.455 2.1775 7.785 3.1675 8.125 4.1875 C5.815 4.1875 3.505 4.1875 1.125 4.1875 C0.795 4.8475 0.465 5.5075 0.125 6.1875 C-2.9375 6.8125 -2.9375 6.8125 -5.875 7.1875 C-4.78945087 0.31235549 -4.78945087 0.31235549 0 0 Z " fill="#B99D70" transform="translate(249.875,262.8125)"/>
<path d="M0 0 C0.99 0.33 1.98 0.66 3 1 C2.6875 2.9375 2.6875 2.9375 2 5 C1.01 5.33 0.02 5.66 -1 6 C-0.67 6.66 -0.34 7.32 0 8 C-0.66 8 -1.32 8 -2 8 C-2.33 8.66 -2.66 9.32 -3 10 C-5.31 9.01 -7.62 8.02 -10 7 C-9.360625 6.71125 -8.72125 6.4225 -8.0625 6.125 C-5.84793921 5.17176549 -5.84793921 5.17176549 -5 3 C-4.01 3 -3.02 3 -2 3 C-2 2.34 -2 1.68 -2 1 C-1.34 0.67 -0.68 0.34 0 0 Z " fill="#DCBD87" transform="translate(268,251)"/>
<path d="M0 0 C0.66 0.33 1.32 0.66 2 1 C1.625 3.9375 1.625 3.9375 1 7 C0.01 7.495 0.01 7.495 -1 8 C-1.65213292 10.02463255 -1.65213292 10.02463255 -2 12 C-2.66 11.34 -3.32 10.68 -4 10 C-4.556875 10.804375 -5.11375 11.60875 -5.6875 12.4375 C-8.21864487 15.24228216 -9.32579134 15.69381595 -13 16 C-13.33 15.01 -13.66 14.02 -14 13 C-11.525 13.495 -11.525 13.495 -9 14 C-9 13.01 -9 12.02 -9 11 C-8.34 11 -7.68 11 -7 11 C-6.67 10.01 -6.34 9.02 -6 8 C-5.34 8 -4.68 8 -4 8 C-2.99193408 5.17318015 -2.99193408 5.17318015 -2.5625 2.875 C-2.376875 2.25625 -2.19125 1.6375 -2 1 C-1.34 0.67 -0.68 0.34 0 0 Z " fill="#A68352" transform="translate(292,215)"/>
<path d="M0 0 C2.33524782 2.25740623 4.18705073 4.2805761 6 7 C6 7.99 6 8.98 6 10 C4.35 10.33 2.7 10.66 1 11 C1 10.34 1 9.68 1 9 C-1.97 8.505 -1.97 8.505 -5 8 C-5 7.34 -5 6.68 -5 6 C-4.01 5.67 -3.02 5.34 -2 5 C-2.33 4.34 -2.66 3.68 -3 3 C-2.01 2.67 -1.02 2.34 0 2 C0 1.34 0 0.68 0 0 Z " fill="#7B6546" transform="translate(248,237)"/>
<path d="M0 0 C0.66 0 1.32 0 2 0 C2 0.66 2 1.32 2 2 C2.556875 2.226875 3.11375 2.45375 3.6875 2.6875 C6.66159588 4.37550036 8.72008865 6.46676517 11 9 C11 9.66 11 10.32 11 11 C8.36 11 5.72 11 3 11 C3.66 10.67 4.32 10.34 5 10 C4.34 9.67 3.68 9.34 3 9 C2.66666667 7.66666667 2.33333333 6.33333333 2 5 C1.34 4.67 0.68 4.34 0 4 C0 2.68 0 1.36 0 0 Z " fill="#816339" transform="translate(286,312)"/>
<path d="M0 0 C0.99 0.99 1.98 1.98 3 3 C2.34 5.31 1.68 7.62 1 10 C0.34 10 -0.32 10 -1 10 C-1.66 10.66 -2.32 11.32 -3 12 C-5.125 12.625 -5.125 12.625 -7 13 C-6.67 12.01 -6.34 11.02 -6 10 C-5.34 10 -4.68 10 -4 10 C-4 9.01 -4 8.02 -4 7 C-3.34 7 -2.68 7 -2 7 C-1.855625 6.030625 -1.71125 5.06125 -1.5625 4.0625 C-1 1 -1 1 0 0 Z M-9 13 C-8.34 13 -7.68 13 -7 13 C-7.33 13.66 -7.66 14.32 -8 15 C-8.33 14.34 -8.66 13.68 -9 13 Z " fill="#C2A171" transform="translate(286,211)"/>
<path d="M0 0 C2.31 0 4.62 0 7 0 C7 0.66 7 1.32 7 2 C7.99 2 8.98 2 10 2 C10.309375 3.11375 10.61875 4.2275 10.9375 5.375 C11.82326483 8.7945155 11.82326483 8.7945155 13 11 C10.05043472 9.63055898 7.47531189 8.12169591 5 6 C5 5.34 5 4.68 5 4 C4.360625 3.71125 3.72125 3.4225 3.0625 3.125 C1 2 1 2 0 0 Z " fill="#5C462A" transform="translate(258,312)"/>
<path d="M0 0 C1.32 0.66 2.64 1.32 4 2 C3.51058824 7.50588235 3.51058824 7.50588235 1.0625 9.875 C-1 11 -1 11 -3 11 C-3.75 8.8125 -3.75 8.8125 -4 6 C-2.0625 3.25 -2.0625 3.25 0 1 C0 0.67 0 0.34 0 0 Z " fill="#A98757" transform="translate(248,280)"/>
<path d="M0 0 C2.1385485 2.1385485 2.42655063 3.13275314 3 6 C-4.75 7 -4.75 7 -7 7 C-7.33 5.02 -7.66 3.04 -8 1 C-5.36 1.33 -2.72 1.66 0 2 C0 1.34 0 0.68 0 0 Z " fill="#9D7A4E" transform="translate(237,232)"/>
<path d="M0 0 C0.99 0.33 1.98 0.66 3 1 C1.47291037 4.43595166 -0.59927045 7.11912454 -3 10 C-5.97 9.505 -5.97 9.505 -9 9 C-8 7 -8 7 -6.1875 6.1875 C-3.34801372 4.64606459 -1.89807066 2.57595304 0 0 Z M-8 10 C-7.01 10 -6.02 10 -5 10 C-5 10.99 -5 11.98 -5 13 C-6.65 12.67 -8.3 12.34 -10 12 C-9.34 11.34 -8.68 10.68 -8 10 Z " fill="#B38F5E" transform="translate(288,216)"/>
<path d="M0 0 C0.66 0 1.32 0 2 0 C3 3 3 3 2.3125 5.625 C1 8 1 8 -1.125 8.8125 C-1.74375 8.874375 -2.3625 8.93625 -3 9 C-3 9.66 -3 10.32 -3 11 C-3.99 11 -4.98 11 -6 11 C-6 11.66 -6 12.32 -6 13 C-6.99 13.33 -7.98 13.66 -9 14 C-7.51142052 9.53426155 -5.38470621 6.23754507 -2 3 C-1.34 2.01 -0.68 1.02 0 0 Z " fill="#BF9B69" transform="translate(312,182)"/>
<path d="M0 0 C0.33 0 0.66 0 1 0 C1 3.63 1 7.26 1 11 C1.99 11 2.98 11 4 11 C5.99785435 15.1205746 6.17835515 18.45194365 6 23 C2.71942978 21.35971489 2.11142707 18.29257816 0.8203125 14.98828125 C-0.54641521 10.00948745 -0.31647312 5.11631552 0 0 Z " fill="#58472F" transform="translate(240,275)"/>
<path d="M0 0 C-1.52763464 4.08596252 -4.11084191 5.79826179 -7.625 8.25 C-8.62789063 8.95640625 -9.63078125 9.6628125 -10.6640625 10.390625 C-11.43492187 10.92171875 -12.20578125 11.4528125 -13 12 C-13.99 11.34 -14.98 10.68 -16 10 C-13.71234889 8.32756577 -11.42026108 6.66193073 -9.125 5 C-8.47402344 4.52304688 -7.82304687 4.04609375 -7.15234375 3.5546875 C-2.2265625 0 -2.2265625 0 0 0 Z " fill="#353530" transform="translate(306,224)"/>
<path d="M0 0 C1.65 0.33 3.3 0.66 5 1 C1.39299028 5.23431576 -3.14586161 7.4692099 -8 10 C-8.33 8.68 -8.66 7.36 -9 6 C-6.09399739 4.74335022 -4.20395416 4 -1 4 C-0.67 2.68 -0.34 1.36 0 0 Z " fill="#725C3E" transform="translate(299,217)"/>
<path d="M0 0 C0.33 0.66 0.66 1.32 1 2 C2.32 2 3.64 2 5 2 C7.125 2.125 7.125 2.125 9 3 C10.25 6.0625 10.25 6.0625 11 9 C8.03 8.505 8.03 8.505 5 8 C5 7.01 5 6.02 5 5 C3.35 5.66 1.7 6.32 0 7 C-1.125 2.25 -1.125 2.25 0 0 Z " fill="#A07F52" transform="translate(206,212)"/>
<path d="M0 0 C0 0.99 0 1.98 0 3 C-0.66 3 -1.32 3 -2 3 C-2 3.66 -2 4.32 -2 5 C-2.99 5 -3.98 5 -5 5 C-5.33 5.66 -5.66 6.32 -6 7 C-7.32 7 -8.64 7 -10 7 C-10 6.34 -10 5.68 -10 5 C-9.01 4.34 -8.02 3.68 -7 3 C-6.67 2.01 -6.34 1.02 -6 0 C-3.42525708 -0.99667468 -2.51072708 -1.25536354 0 0 Z " fill="#BC9A66" transform="translate(298,207)"/>
<path d="M0 0 C4.19813062 3.74427866 6.07776117 6.8403063 8 12 C6.35 11.67 4.7 11.34 3 11 C2.9175 10.21625 2.835 9.4325 2.75 8.625 C2.27193661 5.85250896 2.27193661 5.85250896 -0.0625 4.6875 C-0.701875 4.460625 -1.34125 4.23375 -2 4 C-2 3.34 -2 2.68 -2 2 C-1.34 2 -0.68 2 0 2 C0 1.34 0 0.68 0 0 Z " fill="#9A815F" transform="translate(241,228)"/>
<path d="M0 0 C5.84615385 5.53846154 5.84615385 5.53846154 7 9 C6.67 9.99 6.34 10.98 6 12 C5.34 12 4.68 12 4 12 C3.34 10.02 2.68 8.04 2 6 C1.01 6 0.02 6 -1 6 C-1.33 4.35 -1.66 2.7 -2 1 C-1.67 1.66 -1.34 2.32 -1 3 C-0.67 2.01 -0.34 1.02 0 0 Z " fill="#A88F69" transform="translate(191,162)"/>
<path d="M0 0 C0.33 0.66 0.66 1.32 1 2 C1.66 2 2.32 2 3 2 C3.66 1.34 4.32 0.68 5 0 C5 0.99 5 1.98 5 3 C5.66 3 6.32 3 7 3 C6 6 6 6 4 7 C4 7.99 4 8.98 4 10 C2.68 9.34 1.36 8.68 0 8 C0 5.36 0 2.72 0 0 Z " fill="#B49363" transform="translate(184,192)"/>
<path d="M0 0 C0.66 0.66 1.32 1.32 2 2 C0.21118264 3.00508801 -1.58114696 4.00392736 -3.375 5 C-4.37273437 5.556875 -5.37046875 6.11375 -6.3984375 6.6875 C-9 8 -9 8 -11 8 C-10.375 5.625 -10.375 5.625 -9 3 C-5.37169613 1.30164499 -3.84489875 0.71836708 0 2 C0 1.34 0 0.68 0 0 Z " fill="#6F665A" transform="translate(276,233)"/>
<path d="M0 0 C1.32 0.33 2.64 0.66 4 1 C4 1.66 4 2.32 4 3 C2.9275 3.598125 1.855 4.19625 0.75 4.8125 C-1.98958993 6.37401069 -4.53256878 8.02605503 -7 10 C-7 8.02 -7 6.04 -7 4 C-6.34 4 -5.68 4 -5 4 C-4.67 3.34 -4.34 2.68 -4 2 C-3.01 2.66 -2.02 3.32 -1 4 C-0.67 2.68 -0.34 1.36 0 0 Z " fill="#5C432A" transform="translate(248,246)"/>
<path d="M0 0 C1.32 0.33 2.64 0.66 4 1 C4.33 2.32 4.66 3.64 5 5 C7.97 5.495 7.97 5.495 11 6 C11 6.66 11 7.32 11 8 C9.22604492 7.57533503 7.45589369 7.1347591 5.6875 6.6875 C4.70136719 6.44386719 3.71523437 6.20023438 2.69921875 5.94921875 C-0.00141012 4.99950411 -1.20956216 4.18152323 -3 2 C-2.01 2 -1.02 2 0 2 C0 1.34 0 0.68 0 0 Z " fill="#BC9968" transform="translate(225,217)"/>
<path d="M0 0 C0.66 0 1.32 0 2 0 C2 1.98 2 3.96 2 6 C1.01 5.67 0.02 5.34 -1 5 C-1.103125 5.639375 -1.20625 6.27875 -1.3125 6.9375 C-1.539375 7.618125 -1.76625 8.29875 -2 9 C-2.99 9.33 -3.98 9.66 -5 10 C-5 10.66 -5 11.32 -5 12 C-5.66 11.67 -6.32 11.34 -7 11 C-5.88368586 9.16136495 -4.75670373 7.32920277 -3.625 5.5 C-2.99851562 4.4790625 -2.37203125 3.458125 -1.7265625 2.40625 C-1.15679687 1.6121875 -0.58703125 0.818125 0 0 Z " fill="#958A77" transform="translate(325,153)"/>
<path d="M0 0 C0.99 0 1.98 0 3 0 C3.28875 0.639375 3.5775 1.27875 3.875 1.9375 C4.82823451 4.15206079 4.82823451 4.15206079 7 5 C4.1875 6.125 4.1875 6.125 1 7 C0.01 6.34 -0.98 5.68 -2 5 C-2 4.01 -2 3.02 -2 2 C-1.34 2 -0.68 2 0 2 C0 1.34 0 0.68 0 0 Z " fill="#B08E5F" transform="translate(199,200)"/>
<path d="M0 0 C0.99 1.32 1.98 2.64 3 4 C1.56988027 4.86646667 0.13059381 5.71781829 -1.3125 6.5625 C-2.51326172 7.27599609 -2.51326172 7.27599609 -3.73828125 8.00390625 C-6 9 -6 9 -9 8 C-8.67 7.34 -8.34 6.68 -8 6 C-6.68 6 -5.36 6 -4 6 C-3.67 5.01 -3.34 4.02 -3 3 C-2.34 3 -1.68 3 -1 3 C-0.67 2.01 -0.34 1.02 0 0 Z " fill="#756040" transform="translate(288,224)"/>
<path d="M0 0 C0.2475 0.61875 0.495 1.2375 0.75 1.875 C2.23281451 4.39578467 3.40863958 4.7852998 6 6 C6.99 7.485 6.99 7.485 8 9 C6.68 9 5.36 9 4 9 C4 8.34 4 7.68 4 7 C2.02 7.99 2.02 7.99 0 9 C-1.53445094 5.93109813 -0.54984289 3.29905734 0 0 Z M-3 9 C-2.01 9 -1.02 9 0 9 C-0.66 10.32 -1.32 11.64 -2 13 C-2.33 11.68 -2.66 10.36 -3 9 Z " fill="#7F633E" transform="translate(193,210)"/>
<path d="M0 0 C2.31 0.33 4.62 0.66 7 1 C6.67 2.65 6.34 4.3 6 6 C6.66 6 7.32 6 8 6 C7.67 6.99 7.34 7.98 7 9 C4.03595495 6.19195732 1.55500981 3.81684226 0 0 Z " fill="#705A39" transform="translate(209,229)"/>
<path d="M0 0 C1.4540625 0.0309375 1.4540625 0.0309375 2.9375 0.0625 C2.9375 3.0625 2.9375 3.0625 1.6875 4.75 C-0.0625 6.0625 -0.0625 6.0625 -4.0625 6.0625 C-4.105221 4.39638095 -4.10313832 2.72867115 -4.0625 1.0625 C-3.0625 0.0625 -3.0625 0.0625 0 0 Z " fill="#917143" transform="translate(315.0625,200.9375)"/>
<path d="M0 0 C0.33 0 0.66 0 1 0 C1.29554656 7.68421053 1.29554656 7.68421053 -1 11 C-1.99 11.495 -1.99 11.495 -3 12 C-3.33 9.36 -3.66 6.72 -4 4 C-3.01 3.67 -2.02 3.34 -1 3 C-0.67 2.01 -0.34 1.02 0 0 Z " fill="#574226" transform="translate(188,293)"/>
<path d="M0 0 C1.32 0.33 2.64 0.66 4 1 C4 4 4 4 2 6.1875 C1.34 6.785625 0.68 7.38375 0 8 C-0.99 7.67 -1.98 7.34 -3 7 C-2 4 -2 4 0 2 C0 1.34 0 0.68 0 0 Z " fill="#6E573B" transform="translate(318,200)"/>
<path d="M0 0 C2.28062828 3.42094242 2.21925007 4.68187222 2.125 8.6875 C2.10695313 9.68136719 2.08890625 10.67523438 2.0703125 11.69921875 C2.03550781 12.83810547 2.03550781 12.83810547 2 14 C1.67 13.01 1.34 12.02 1 11 C0.01 10.67 -0.98 10.34 -2 10 C-1.835 9.443125 -1.67 8.88625 -1.5 8.3125 C-0.90534052 5.95652268 -0.90534052 5.95652268 -1 3.3125 C-1 1 -1 1 0 0 Z " fill="#AE8F63" transform="translate(325,168)"/>
<path d="M0 0 C0.99 0.33 1.98 0.66 3 1 C3 1.66 3 2.32 3 3 C3.99 3.66 4.98 4.32 6 5 C6 5.99 6 6.98 6 8 C4.35 8 2.7 8 1 8 C0.67 5.36 0.34 2.72 0 0 Z " fill="#87683E" transform="translate(184,248)"/>
<path d="M0 0 C0.556875 0.226875 1.11375 0.45375 1.6875 0.6875 C1.3575 2.0075 1.0275 3.3275 0.6875 4.6875 C0.0275 4.6875 -0.6325 4.6875 -1.3125 4.6875 C-1.3125 5.3475 -1.3125 6.0075 -1.3125 6.6875 C-1.9725 6.6875 -2.6325 6.6875 -3.3125 6.6875 C-4.64583333 5.35416667 -5.97916667 4.02083333 -7.3125 2.6875 C-2.88173077 -0.38942308 -2.88173077 -0.38942308 0 0 Z " fill="#A2947C" transform="translate(281.3125,240.3125)"/>
<path d="M0 0 C0.66 0.33 1.32 0.66 2 1 C0.38731308 3.71224618 -1.24901874 6.37352812 -3 9 C-3.66 9 -4.32 9 -5 9 C-5.33 10.32 -5.66 11.64 -6 13 C-6.66 13 -7.32 13 -8 13 C-7.49396008 10.83125748 -7.00016187 9.00032373 -6 7 C-5.34 7 -4.68 7 -4 7 C-3.67 6.01 -3.34 5.02 -3 4 C-2.34 3.67 -1.68 3.34 -1 3 C-0.67 2.01 -0.34 1.02 0 0 Z " fill="#C8A876" transform="translate(297,198)"/>
<path d="M0 0 C2.83967231 0 5.23735711 0.40267181 8 1 C8.33 1.99 8.66 2.98 9 4 C5.7 4 2.4 4 -1 4 C-0.67 2.68 -0.34 1.36 0 0 Z " fill="#A5895E" transform="translate(243,268)"/>
<path d="M0 0 C-0.33 0.99 -0.66 1.98 -1 3 C-1.66 3 -2.32 3 -3 3 C-3 3.66 -3 4.32 -3 5 C-3.66 5 -4.32 5 -5 5 C-5.33 5.99 -5.66 6.98 -6 8 C-6.66 7.67 -7.32 7.34 -8 7 C-6.25 2.125 -6.25 2.125 -4 1 C-4.99 0.67 -5.98 0.34 -7 0 C-3.98968256 -0.93423645 -3.13349732 -1.04449911 0 0 Z " fill="#9F8F6C" transform="translate(278,247)"/>
<path d="M0 0 C0.33 2.64 0.66 5.28 1 8 C-1.46800047 6.84826645 -3.04783565 5.95216435 -5 4 C-5 3.01 -5 2.02 -5 1 C-1.125 0 -1.125 0 0 0 Z " fill="#B8986D" transform="translate(247,271)"/>
<path d="M0 0 C0.99 0.66 1.98 1.32 3 2 C2.67 2.66 2.34 3.32 2 4 C2 5.32 2 6.64 2 8 C1.34 8 0.68 8 0 8 C-1.38232443 6.37373596 -2.71937515 4.7074998 -4 3 C-3 1 -3 1 0 0 Z " fill="#745A3D" transform="translate(205,218)"/>
<path d="M0 0 C0.66 0.33 1.32 0.66 2 1 C2.59355614 3.64860427 2.74209269 6.29197322 3 9 C1.68 9.99 0.36 10.98 -1 12 C-1.14285714 3.42857143 -1.14285714 3.42857143 0 0 Z " fill="#70573A" transform="translate(324,190)"/>
<path d="M0 0 C1.31223496 3.93670488 0.24296256 6.12488144 -1 10 C-2.32 9.67 -3.64 9.34 -5 9 C-3.7508258 5.54074837 -2.32472205 2.85306797 0 0 Z " fill="#98886B" transform="translate(314,169)"/>
<path d="M0 0 C1.65 0.33 3.3 0.66 5 1 C4.67 2.65 4.34 4.3 4 6 C2.68 6 1.36 6 0 6 C-1.125 2.25 -1.125 2.25 0 0 Z " fill="#D1B07E" transform="translate(216,202)"/>
<path d="M0 0 C0.99 0 1.98 0 3 0 C2.67 3.63 2.34 7.26 2 11 C1.34 10.01 0.68 9.02 0 8 C-0.66 7.67 -1.32 7.34 -2 7 C-1.34 4.69 -0.68 2.38 0 0 Z " fill="#8E7450" transform="translate(263,265)"/>
<path d="M0 0 C2.3125 -0.3125 2.3125 -0.3125 5 0 C6.81883009 2.3832946 8 3.95818337 8 7 C7.01 7 6.02 7 5 7 C4.34 5.68 3.68 4.36 3 3 C1.68 3 0.36 3 -1 3 C-0.67 2.01 -0.34 1.02 0 0 Z " fill="#C3A271" transform="translate(225,215)"/>
<path d="M0 0 C0.66 0.99 1.32 1.98 2 3 C1.34 3 0.68 3 0 3 C-0.33 5.31 -0.66 7.62 -1 10 C-1.99 10.33 -2.98 10.66 -4 11 C-4.66 10.67 -5.32 10.34 -6 10 C-5.34 8.35 -4.68 6.7 -4 5 C-3.34 5 -2.68 5 -2 5 C-1.34 3.35 -0.68 1.7 0 0 Z " fill="#9B8A72" transform="translate(291,202)"/>
<path d="M0 0 C2.52588702 2.36292656 3.88820837 3.66462511 5 7 C3.35 7.33 1.7 7.66 0 8 C0 5.36 0 2.72 0 0 Z M3 1 C3.99 1.33 4.98 1.66 6 2 C5.34 2.66 4.68 3.32 4 4 C3.67 3.01 3.34 2.02 3 1 Z " fill="#9C7B4F" transform="translate(184,202)"/>
<path d="M0 0 C2 2 2 2 2 6 C2.66 6 3.32 6 4 6 C4 6.66 4 7.32 4 8 C3.34 8 2.68 8 2 8 C1.67 9.65 1.34 11.3 1 13 C0.67 13 0.34 13 0 13 C0 8.71 0 4.42 0 0 Z " fill="#DDBE91" transform="translate(184,167)"/>
<path d="M0 0 C1.32 0.66 2.64 1.32 4 2 C3.34 2 2.68 2 2 2 C1.67 3.65 1.34 5.3 1 7 C0.01 7 -0.98 7 -2 7 C-1.125 2.25 -1.125 2.25 0 0 Z " fill="#886D43" transform="translate(209,221)"/>
<path d="M0 0 C1.24546405 2.49092811 0.7767578 3.41080733 0 6 C-0.66 6 -1.32 6 -2 6 C-2 6.99 -2 7.98 -2 9 C-4 10.6875 -4 10.6875 -6 12 C-5.54300722 6.97307937 -3.00758252 3.85103739 0 0 Z " fill="#92876D" transform="translate(284,212)"/>
<path d="M0 0 C0.99 0.99 1.98 1.98 3 3 C1.25 6.875 1.25 6.875 -1 8 C-1.99 7.01 -2.98 6.02 -4 5 C-2.68 3.35 -1.36 1.7 0 0 Z " fill="#C1A26E" transform="translate(188,187)"/>
<path d="M0 0 C5.78461538 4.43076923 5.78461538 4.43076923 6.875 7.3125 C6.936875 8.1478125 6.936875 8.1478125 7 9 C3.34683329 7.75023244 2.21934164 7.32901247 0 4 C0 2.68 0 1.36 0 0 Z " fill="#8A785A" transform="translate(280,302)"/>
<path d="M0 0 C0.33 1.32 0.66 2.64 1 4 C0.01 4 -0.98 4 -2 4 C-4.33564933 4.31669821 -6.6693782 4.64820803 -9 5 C-6.16569547 1.7457985 -4.31392226 0.4793247 0 0 Z " fill="#BFAC92" transform="translate(277,243)"/>
<path d="M0 0 C0.66 0 1.32 0 2 0 C1.67 2.97 1.34 5.94 1 9 C-0.32 8.34 -1.64 7.68 -3 7 C-2.38722388 4.03824877 -1.74627478 2.61941217 0 0 Z " fill="#84663D" transform="translate(191,244)"/>
<path d="M0 0 C0.33 0 0.66 0 1 0 C0.67 5.28 0.34 10.56 0 16 C-0.33 16 -0.66 16 -1 16 C-1.66 12.37 -2.32 8.74 -3 5 C-2.34 5 -1.68 5 -1 5 C-0.67 3.35 -0.34 1.7 0 0 Z " fill="#453520" transform="translate(195,230)"/>
<path d="M0 0 C4.875 4.625 4.875 4.625 6 8 C5.01 8.495 5.01 8.495 4 9 C3.67 8.34 3.34 7.68 3 7 C0.98330173 5.86649466 0.98330173 5.86649466 -1 5 C-0.67 3.35 -0.34 1.7 0 0 Z " fill="#9F9075" transform="translate(217,196)"/>
<path d="M0 0 C0.33 0 0.66 0 1 0 C1 1.65 1 3.3 1 5 C1.33 4.34 1.66 3.68 2 3 C2.66 3 3.32 3 4 3 C3.67 5.31 3.34 7.62 3 10 C0.18167487 8.59083743 -0.02593461 6.92219617 -1 4 C-1 1 -1 1 0 0 Z " fill="#AA9368" transform="translate(317,165)"/>
<path d="M0 0 C1.04449911 3.13349732 0.93423645 3.98968256 0 7 C-1.175625 7.2165625 -1.175625 7.2165625 -2.375 7.4375 C-4.96421018 7.87798925 -4.96421018 7.87798925 -7 9 C-7 8.01 -7 7.02 -7 6 C-6.21625 5.7525 -5.4325 5.505 -4.625 5.25 C-1.67682892 3.84610901 -1.0975223 2.99324263 0 0 Z " fill="#CBAB73" transform="translate(325,161)"/>
<path d="M0 0 C0 3.86695678 -1.41909971 6.5088452 -3 10 C-4.125 8.3125 -4.125 8.3125 -5 6 C-4.3125 3.3125 -4.3125 3.3125 -3 1 C-2.01 0.67 -1.02 0.34 0 0 Z " fill="#7D6A4B" transform="translate(270,255)"/>
<path d="M0 0 C0.66 0.66 1.32 1.32 2 2 C0.02 2.99 0.02 2.99 -2 4 C-1.67 4.66 -1.34 5.32 -1 6 C-1.66 6 -2.32 6 -3 6 C-3.33 6.66 -3.66 7.32 -4 8 C-4.99 7.34 -5.98 6.68 -7 6 C-6.01 6 -5.02 6 -4 6 C-4.33 5.01 -4.66 4.02 -5 3 C-3.35 2.01 -1.7 1.02 0 0 Z " fill="#CEB17F" transform="translate(269,253)"/>
<path d="M0 0 C2.475 0.99 2.475 0.99 5 2 C4.34 3.98 3.68 5.96 3 8 C2.67 7.34 2.34 6.68 2 6 C1.34 6 0.68 6 0 6 C0 4 0 2 0 0 Z " fill="#8D6B3E" transform="translate(259,301)"/>
<path d="M0 0 C0.66 0 1.32 0 2 0 C2.66 1.98 3.32 3.96 4 6 C3.34 6.66 2.68 7.32 2 8 C2 7.01 2 6.02 2 5 C0.68 4.34 -0.64 3.68 -2 3 C-1.34 2.01 -0.68 1.02 0 0 Z " fill="#7E664A" transform="translate(266,283)"/>
<path d="M0 0 C0.66 0 1.32 0 2 0 C2.33 0.66 2.66 1.32 3 2 C4.98 1.67 6.96 1.34 9 1 C8.25 2.9375 8.25 2.9375 7 5 C4.875 5.75 4.875 5.75 3 6 C2.01 4.02 1.02 2.04 0 0 Z " fill="#3B2D1F" transform="translate(230,257)"/>
<path d="M0 0 C5.57142857 5.14285714 5.57142857 5.14285714 6 9 C4.125 8.4375 4.125 8.4375 2 7 C0.75 3.375 0.75 3.375 0 0 Z " fill="#91836A" transform="translate(229,212)"/>
<path d="M0 0 C1.67542976 0.28604898 3.34385343 0.61781233 5 1 C5 2.98 5 4.96 5 7 C4.67 6.34 4.34 5.68 4 5 C3.01 5 2.02 5 1 5 C1 4.01 1 3.02 1 2 C0.34 1.67 -0.32 1.34 -1 1 C-0.67 0.67 -0.34 0.34 0 0 Z " fill="#C6A773" transform="translate(211,202)"/>
<path d="M0 0 C0.66 0.33 1.32 0.66 2 1 C1.34 3.64 0.68 6.28 0 9 C-2 7 -2 7 -2.125 4.375 C-2.08375 3.59125 -2.0425 2.8075 -2 2 C-1.34 2 -0.68 2 0 2 C0 1.34 0 0.68 0 0 Z " fill="#D0B386" transform="translate(301,190)"/>
<path d="M0 0 C0.99 0.33 1.98 0.66 3 1 C2.0022242 3.99332739 1.2477975 4.94766315 -1 7 C-1.66 5.68 -2.32 4.36 -3 3 C-2.01 2.01 -1.02 1.02 0 0 Z " fill="#D4B47E" transform="translate(207,193)"/>
<path d="M0 0 C1.9375 0.125 1.9375 0.125 4 1 C5.75 3.0625 5.75 3.0625 7 5 C3.26512223 4.5020163 1.18762365 4.12508244 -2 2 C-1.34 1.34 -0.68 0.68 0 0 Z " fill="#302512" transform="translate(332,354)"/>
<path d="M0 0 C0.33 0.66 0.66 1.32 1 2 C1.99 2 2.98 2 4 2 C3.67 2.99 3.34 3.98 3 5 C-2.75 3.25 -2.75 3.25 -5 1 C-3 0 -3 0 0 0 Z " fill="#3A2915" transform="translate(314,346)"/>
<path d="M0 0 C0 1.98 0 3.96 0 6 C-1.66666667 6 -3.33333333 6 -5 6 C-5 4.68 -5 3.36 -5 2 C-1.125 0 -1.125 0 0 0 Z " fill="#6F512D" transform="translate(281,317)"/>
<path d="M0 0 C0.33 0 0.66 0 1 0 C1.25 7.625 1.25 7.625 -1 11 C-1.66 10.67 -2.32 10.34 -3 10 C-3 8.35 -3 6.7 -3 5 C-2.01 5.495 -2.01 5.495 -1 6 C-0.67 4.02 -0.34 2.04 0 0 Z " fill="#5C4529" transform="translate(193,247)"/>
<path d="M0 0 C0.66 0 1.32 0 2 0 C2.33 2.31 2.66 4.62 3 7 C1.35 6.67 -0.3 6.34 -2 6 C-2.33 5.01 -2.66 4.02 -3 3 C-2.01 3 -1.02 3 0 3 C0 2.01 0 1.02 0 0 Z " fill="#B49363" transform="translate(192,196)"/>
<path d="M0 0 C0.66 0 1.32 0 2 0 C2.33 2.31 2.66 4.62 3 7 C1.68 6.34 0.36 5.68 -1 5 C-0.67 3.35 -0.34 1.7 0 0 Z " fill="#C9A875" transform="translate(192,188)"/>
<path d="M0 0 C0.33 0.66 0.66 1.32 1 2 C1.66 2.33 2.32 2.66 3 3 C2.34 3 1.68 3 1 3 C0.67 4.32 0.34 5.64 0 7 C-0.66 7 -1.32 7 -2 7 C-2.33 7.66 -2.66 8.32 -3 9 C-2.5020163 5.26512223 -2.12508244 3.18762365 0 0 Z " fill="#A88456" transform="translate(322,177)"/>
<path d="M0 0 C2.61580479 0.3269756 4.64078137 0.82039068 7 2 C7 2.66 7 3.32 7 4 C2.545 3.01 2.545 3.01 -2 2 C-1.34 1.34 -0.68 0.68 0 0 Z " fill="#353127" transform="translate(342,358)"/>
<path d="M0 0 C2.91517292 1.07401108 4.77810176 1.77810176 7 4 C5.1875 4.625 5.1875 4.625 3 5 C2.01 4.34 1.02 3.68 0 3 C0 2.01 0 1.02 0 0 Z " fill="#554937" transform="translate(336,354)"/>
<path d="M0 0 C2.31 0 4.62 0 7 0 C5.35 1.65 3.7 3.3 2 5 C1.34 4.34 0.68 3.68 0 3 C0 2.01 0 1.02 0 0 Z " fill="#B28F5E" transform="translate(251,267)"/>
<path d="M0 0 C0.86625 0.3403125 0.86625 0.3403125 1.75 0.6875 C0.1 2.0075 -1.55 3.3275 -3.25 4.6875 C-4.24 4.0275 -5.23 3.3675 -6.25 2.6875 C-2.80384615 -0.38942308 -2.80384615 -0.38942308 0 0 Z " fill="#5A5553" transform="translate(296.25,231.3125)"/>
<path d="M0 0 C1.32 0 2.64 0 4 0 C4.33 1.98 4.66 3.96 5 6 C4.34 6 3.68 6 3 6 C2.67 5.34 2.34 4.68 2 4 C1.01 4 0.02 4 -1 4 C-0.67 2.68 -0.34 1.36 0 0 Z " fill="#D5B67A" transform="translate(185,163)"/>
<path d="M0 0 C2.64 0 5.28 0 8 0 C8 1.65 8 3.3 8 5 C4.62496331 3.8141763 2.35277269 2.72426311 0 0 Z " fill="#382617" transform="translate(291,337)"/>
<path d="M0 0 C1.9375 0.8125 1.9375 0.8125 4 2 C4.33 2.99 4.66 3.98 5 5 C2 6 2 6 -1 5 C-0.67 3.35 -0.34 1.7 0 0 Z " fill="#6B4E2C" transform="translate(302,330)"/>
<path d="M0 0 C0.66 0 1.32 0 2 0 C2 1.98 2 3.96 2 6 C0.68 6 -0.64 6 -2 6 C-1.34 4.02 -0.68 2.04 0 0 Z " fill="#AB884E" transform="translate(260,266)"/>
<path d="M0 0 C2.475 0.495 2.475 0.495 5 1 C5.33 2.32 5.66 3.64 6 5 C5.01 4.67 4.02 4.34 3 4 C2.01 4.33 1.02 4.66 0 5 C0 3.35 0 1.7 0 0 Z " fill="#BC9D67" transform="translate(260,260)"/>
<path d="M0 0 C1.98 0.66 3.96 1.32 6 2 C5.67 3.65 5.34 5.3 5 7 C3.29115995 5.37660195 1.62553283 3.70680947 0 2 C0 1.34 0 0.68 0 0 Z " fill="#4C3A24" transform="translate(225,250)"/>
<path d="M0 0 C0.66 0.66 1.32 1.32 2 2 C-2.625 5 -2.625 5 -6 5 C-5.34 3.68 -4.68 2.36 -4 1 C-2.68 1.33 -1.36 1.66 0 2 C0 1.34 0 0.68 0 0 Z " fill="#7A6546" transform="translate(276,233)"/>
<path d="M0 0 C2.7839183 1.39195915 2.97898997 3.15575779 4 6 C1.69 5.01 -0.62 4.02 -3 3 C-2.01 2.67 -1.02 2.34 0 2 C0 1.34 0 0.68 0 0 Z " fill="#B79362" transform="translate(225,217)"/>
<path d="M0 0 C0.99 0.99 1.98 1.98 3 3 C2.67 3.99 2.34 4.98 2 6 C0.68 6 -0.64 6 -2 6 C-1.125 1.125 -1.125 1.125 0 0 Z " fill="#CDB186" transform="translate(286,211)"/>
<path d="M0 0 C0.66 0 1.32 0 2 0 C2 0.66 2 1.32 2 2 C2.639375 2.28875 3.27875 2.5775 3.9375 2.875 C6 4 6 4 7 6 C4.69 5.34 2.38 4.68 0 4 C0 2.68 0 1.36 0 0 Z " fill="#8A6F44" transform="translate(286,312)"/>
<path d="M0 0 C2.475 0.495 2.475 0.495 5 1 C4.34 2.65 3.68 4.3 3 6 C2.34 6 1.68 6 1 6 C0.67 4.02 0.34 2.04 0 0 Z " fill="#947549" transform="translate(229,233)"/>
<path d="M0 0 C1.37562854 1.28965176 2.70766393 2.62689293 4 4 C4 4.66 4 5.32 4 6 C4.66 6 5.32 6 6 6 C5.67 6.66 5.34 7.32 5 8 C4.01 8 3.02 8 2 8 C1.34 5.36 0.68 2.72 0 0 Z " fill="#867762" transform="translate(198,171)"/>
<path d="M0 0 C1.98 0.99 1.98 0.99 4 2 C3.67 3.65 3.34 5.3 3 7 C2.34 7 1.68 7 1 7 C0.67 4.69 0.34 2.38 0 0 Z " fill="#9C8A6A" transform="translate(194,167)"/>
<path d="M0 0 C0.33 0.99 0.66 1.98 1 3 C-0.98 3.99 -0.98 3.99 -3 5 C-3 5.66 -3 6.32 -3 7 C-3.66 6.67 -4.32 6.34 -5 6 C-2.25 1.125 -2.25 1.125 0 0 Z " fill="#A99981" transform="translate(323,158)"/>
</svg>
